<svg xmlns="http://www.w3.org/2000/svg"><defs><font id="icons" horiz-adv-x="1024"><font-face units-per-em="1024" ascent="960" descent="-64"/><glyph horiz-adv-x="512"/><glyph unicode="" glyph-name="up" d="M1027.2 342.409l-86.4-131.2-428.8 284.8-428.8-284.8-86.4 131.2 515.2 342.4z"/><glyph unicode="" glyph-name="next" d="M404.799-68.806l-131.2 89.6 284.8 428.8-284.8 428.8 131.2 86.4 345.6-515.2z"/><glyph unicode="" glyph-name="prev" d="M617.6 963.2l131.2-86.4L464 448 748.8 19.2 617.6-67.2 275.2 448z"/><glyph unicode="" glyph-name="down" d="M-3.2 553.609l86.4 131.2 428.8-284.8 428.8 284.8 86.4-131.2-515.2-342.4z"/><glyph unicode="" glyph-name="warn" d="M512 960C230.4 960 0 729.6 0 448S230.4-64 512-64s512 230.4 512 512-230.4 512-512 512zm51.2-768H460.8v102.4h102.4V192zm0 204.8H460.8V704h102.4V396.8z"/><glyph unicode="" glyph-name="confirm" d="M884.938 801.975l-18.963 18.963c-208.593 195.951-530.963 183.309-726.914-18.963C-56.89 593.382-44.248 271.012 158.024 75.061c195.951-183.309 505.679-183.309 701.63 0 208.593 195.951 221.235 518.321 25.284 726.914zM474.074 214.123l-189.63 189.63 69.531 75.852 120.099-120.099 221.235 221.235 69.531-69.531-290.765-297.086z"/><glyph unicode="" glyph-name="eclipse" d="M511.991-63.972C230.401-63.972.01 166.42.01 448.009S230.402 959.99 511.991 959.99c281.59 0 511.981-230.392 511.981-511.981S793.58-63.972 511.991-63.972zm0 938.632c-234.658 0-426.651-191.993-426.651-426.651S277.333 21.358 511.991 21.358c234.658 0 426.651 191.993 426.651 426.651S746.649 874.66 511.991 874.66zm298.656-426.651c0-164.943-133.713-298.656-298.656-298.656S213.335 283.066 213.335 448.009s133.713 298.656 298.656 298.656 298.656-133.713 298.656-298.656z"/><glyph unicode="" glyph-name="left-arrow" d="M1024 420.352c0-17.237-13.312-31.175-29.81-31.175H114.176l273.636-286.151c11.662-12.174 11.662-31.915 0-44.089-5.803-6.087-13.426-9.159-21.049-9.159s-15.246 3.072-21.106 9.159L.114 420.352l345.6 361.415c11.605 12.174 30.492 12.174 42.155 0 11.605-12.174 11.605-31.915 0-44.089L114.177 451.527h880.014c16.498 0 29.81-13.938 29.81-31.175z"/><glyph unicode="" glyph-name="right-arrow" d="M0 420.352c0-17.237 13.312-31.175 29.81-31.175h880.014L636.188 103.026c-11.662-12.174-11.662-31.915 0-44.089 5.803-6.087 13.426-9.159 21.049-9.159s15.246 3.072 21.106 9.159l345.543 361.415-345.6 361.415c-11.605 12.174-30.492 12.174-42.155 0-11.605-12.174-11.605-31.915 0-44.089l273.692-286.151H29.809c-16.498 0-29.81-13.938-29.81-31.175z"/><glyph unicode="" glyph-name="hamburger" d="M981.307 405.322H42.674c-23.551 0-42.665 19.114-42.665 42.665s19.114 42.665 42.665 42.665h938.633c23.551 0 42.665-19.114 42.665-42.665s-19.114-42.665-42.665-42.665zm0 327.102H42.674c-23.551 0-42.665 19.114-42.665 42.665s19.114 42.665 42.665 42.665h938.633c23.551 0 42.665-19.114 42.665-42.665s-19.114-42.665-42.665-42.665zm0-654.194H42.674C19.123 78.23.009 97.344.009 120.895s19.114 42.665 42.665 42.665h938.633c23.551 0 42.665-19.114 42.665-42.665s-19.114-42.665-42.665-42.665z"/><glyph unicode="" glyph-name="phone-ico" d="M1000.753 150.11L842.737 308.638c-31.516 31.442-83.651 30.492-116.19-2.193l-79.63-79.849c-5.046 2.778-10.237 5.703-15.721 8.774-50.307 27.933-119.115 66.175-191.505 138.93-72.683 72.756-110.853 141.928-138.857 192.383a1209.359 1209.359 0 01-8.555 15.356l53.451 53.525 26.25 26.397c32.685 32.685 33.563 84.967 2.12 116.483L216.084 936.972c-31.442 31.516-83.578 30.565-116.19-2.193l-44.531-44.897 1.243-1.243c-14.99-19.084-27.494-41.167-36.707-64.932-8.555-22.594-13.966-44.165-16.379-65.81-20.84-173.517 58.205-332.045 272.743-547.241C572.843-86.729 811.877-64.281 822.188-63.184c22.448 2.705 43.946 8.117 65.883 16.598 23.472 9.213 45.409 21.717 64.493 36.707l.951-.878 45.116 44.312c32.612 32.685 33.489 84.967 2.12 116.556z"/><glyph unicode="" glyph-name="carbon_phone" d="M905.863-63.798h-6.689C125.57-19.307 15.73 633.428.376 832.635a118.102 118.102 0 0064.211 114.69 118.113 118.113 0 0044.448 12.474h216.923a78.732 78.732 0 0073.225-49.605l59.841-147.24a78.743 78.743 0 00-17.322-85.038l-83.857-84.643a368.866 368.866 0 01102.12-196.565 368.88 368.88 0 01196.298-102.643l85.435 84.647a78.721 78.721 0 0085.427 16.139l148.425-59.444a78.757 78.757 0 0035.363-29.24 78.713 78.713 0 0013.058-43.986V54.312a118.086 118.086 0 00-34.594-83.513 118.08 118.08 0 00-83.513-34.594zM118.482 881.06a39.365 39.365 0 01-39.369-39.369v-3.15C97.223 605.476 213.361 54.309 903.5 14.94c5.172-.321 10.355.384 15.257 2.072s9.417 4.327 13.291 7.767a39.347 39.347 0 0113.183 27.168v210.231l-148.418 59.451L683.82 209.424l-18.897 2.362c-342.511 42.909-388.966 385.423-388.966 388.966l-2.362 18.897 111.808 112.989-59.054 148.421H118.482z"/><glyph unicode="" glyph-name="businessman" d="M990.949 332.605h-99.094v49.544c0 27.317-22.228 49.544-49.544 49.544H677.157c-14.239 0-27.005-6.125-36.056-15.773l-178.644 29.76v41.388c49.282 28.604 82.578 81.835 82.578 142.808h16.514c27.317 0 49.544 22.23 49.544 49.547s-22.228 49.544-49.544 49.544h-7.928l9.05 20.992c16.977 39.323 13.94 84.741-8.094 121.472-13.971 23.287-34.401 41.535-59.108 52.767l-46.098 20.992c-54.418 24.773-121.123 17.523-168.968-18.334l-26.044-19.522.033-.05c-25.765-6.722-48.505-23.303-62.479-46.589-18.183-30.322-19.603-67.301-3.798-98.927l16.399-32.799h-6.31c-27.317 0-49.545-22.228-49.545-49.544s22.229-49.547 49.545-49.547h16.516c0-60.974 33.293-114.204 82.576-142.808v-41.388L96.618 412.24C40.647 402.909.019 354.964.019 298.2V-47.254c0-9.134 7.4-16.517 16.516-16.517h974.411c18.218 0 33.029 14.817 33.029 33.029v330.31c0 18.215-14.814 33.029-33.029 33.029zm-132.124 49.548v-49.544H754.249c-8.854 28.259-28.176 51.743-53.493 66.062h141.553c9.099 0 16.517-7.4 16.517-16.517zm-198.186-3.222c26.013-5.334 47.463-22.81 58.299-46.326h-58.299v46.326zm-82.577 300.501c0-9.099-7.417-16.517-16.517-16.517h-16.514v33.029h16.514c9.099 0 16.517-7.414 16.517-16.514zM220.237 843.709c12.552 20.909 35.508 33.906 59.886 33.906 25.897 0 49.926-12.866 64.31-34.401l5.184-7.78 27.482 18.315-5.184 7.78c-14.899 22.329-37.11 38.017-62.299 44.987 37.394 23.187 85.833 26.953 126.065 8.638l46.096-20.992c18.578-8.456 33.953-22.181 44.474-39.704 16.583-27.63 18.861-61.801 6.093-91.396l-1.106-2.575-20.973 41.949a16.534 16.534 0 01-10.984 8.687c-4.756 1.14-9.778.066-13.708-2.858l-26.425-19.819c-22.725-17.062-50.882-26.441-79.274-26.441s-56.549 9.382-79.274 26.425l-26.425 19.819c-3.93 2.956-8.967 4.014-13.708 2.858a16.541 16.541 0 01-10.984-8.687l-22.378-44.773-9.448 18.893c-10.735 21.472-9.777 46.589 2.575 67.169zm-22.03-180.796c-9.099 0-16.516 7.417-16.516 16.517s7.416 16.514 16.516 16.514h16.516v-33.029h-16.516zm49.545-33.031v95.195l22.429 44.872 10.604-7.944c28.405-21.305 63.598-33.03 99.092-33.03s70.686 11.725 99.092 33.03l10.604 7.944 22.429-44.872v-95.195c0-72.849-59.276-132.123-132.123-132.123s-132.123 59.276-132.123 132.123zm132.125-165.154c17.259 0 33.889 2.675 49.544 7.613v-33.805l-49.544-49.544-49.544 49.544v33.805a164.39 164.39 0 0149.544-7.613zm-5.335-181.667h10.668l26.953-67.383-32.287-139.934-32.287 139.934 26.953 67.383zm36.649 68.487l-23.634-35.457h-15.359l-23.651 35.457 5.516 16.532 14.136-14.136c3.22-3.205 7.448-4.822 11.678-4.822s8.456 1.617 11.678 4.839l14.136 14.14 5.502-16.551zM198.207-30.734v280.763h-33.03V-30.734H33.054v328.94c0 40.53 29.018 74.797 69.003 81.469l206.095 34.337 19.804-19.804-13.294-39.867a16.449 16.449 0 011.932-14.385l28.207-42.312-29.809-74.518c-1.257-3.119-1.501-6.555-.76-9.842L363.776-1.417c1.735-7.497 8.406-12.8 16.104-12.8s14.369 5.303 16.104 12.8l49.544 214.701a16.582 16.582 0 01-.76 9.842l-29.809 74.518 28.207 42.312a16.561 16.561 0 011.932 14.385l-13.294 39.867 19.804 19.804 176.251-29.364c-.033-.843-.249-1.636-.249-2.495v-49.544h-99.092c-18.218 0-33.031-14.817-33.031-33.029V-30.73H198.21zm346.824 0h-16.517V2.297h462.448v-33.031H545.03zm445.931 66.061H528.514v133.959c21.006-21.487 50.238-34.863 82.575-34.863h99.094v-16.517c0-27.317 22.228-49.544 49.544-49.544s49.547 22.228 49.547 49.544v16.517h99.092c32.335 0 61.585 13.393 82.592 34.863V35.327zm-247.747 82.578v82.578h33.031v-82.578c0-9.114-7.417-16.517-16.517-16.517s-16.517 7.402-16.517 16.517zm247.734 132.123c0-45.532-37.044-82.578-82.578-82.578h-99.092v49.547c0 9.132-7.4 16.517-16.517 16.517H726.7c-9.119 0-16.517-7.384-16.517-16.517V167.45h-99.094c-45.532 0-82.575 37.046-82.575 82.578v49.547h462.432v-49.547z"/><glyph unicode="" glyph-name="cargo" d="M1008.924 596.912v11.085c0 20.758-16.888 37.644-37.647 37.644-20.238 0-36.749-16.064-37.566-36.106l-461.866 77.517h-20.078v48.939c0 24.912-20.265 45.174-45.172 45.174-24.912 0-45.177-20.264-45.177-45.174v-48.939H135.544v48.939c0 24.912-20.266 45.174-45.174 45.174-24.912 0-45.174-20.266-45.174-45.174v-48.939H.02V114.835h471.671l552.291 81.109v398.443l-15.058 2.526zm-45.175 11.086c0 4.151 3.377 7.53 7.528 7.53 4.154 0 7.53-3.379 7.53-7.53v-6.028l-15.058 2.528v3.5zM391.534 735.993c0 8.304 6.753 15.058 15.058 15.058s15.058-6.754 15.058-15.058v-48.939h-30.117v48.939h.003zm-316.224 0c0 8.304 6.754 15.058 15.058 15.058s15.058-6.754 15.058-15.058v-48.939H75.312v48.939zm60.234-591.035H30.136V656.94h105.408v-30.117H60.252V175.076h75.292v-30.117zm180.699 60.231h-30.114v105.408h-30.117V175.071h60.233v-30.117H165.664v30.117h60.234v135.526H195.78V205.189h-30.114v30.114H135.55v-30.114H90.374v391.514h45.174v-30.114h30.116v30.114h30.116V476.237h30.116v150.582h-60.232v30.117h150.581v-30.117h-60.233V476.237h30.117v120.466h30.114v-30.114h30.117v30.114h45.175V205.189H346.36v30.114h-30.117v-30.114zm677.62 16.775l-511.982-75.188v73.471h-30.114v-75.291h-105.41v30.117h75.294v451.749h-75.294v30.117h105.41V310.597h30.114V654.83l511.982-85.925V221.962zm-512.001 58.502h-30.114v-30.114h30.114v30.114zm-316.219 255.99h-30.116v-30.114h30.116v30.114zm180.703-90.344v30.117h-30.114v-30.117H165.651v30.117h-30.116v-30.117h-15.058v-90.347h15.058v-30.117h30.116v30.117h150.581v-30.117h30.117v30.117h15.058v90.347h-15.061zm-15.058-60.233H150.589v30.117h180.699v-30.117zm-165.645-90.333h-30.116v-30.117h30.116v30.117zm180.738 240.91h-30.117v-30.114h30.117v30.114zm0-240.91h-30.117v-30.117h30.117v30.117zm225.862 301.141h-30.114V205.171h30.114v391.516zm75.294-15.051H617.42V220.238h30.117v361.398zm75.278-15.05h-30.117V235.305h30.117v331.281zm75.294-15.05h-30.117V250.371h30.117v301.165zm75.289-15.08h-30.114V265.408h30.114v271.048zm75.28-15.048h-30.114V280.474h30.114v240.934z"/><glyph unicode="" glyph-name="cart" d="M512 450.227c11.041 0 20.001 8.961 20.001 20s-8.96 20-20.001 20-20.001-8.961-20.001-20 8.96-20 20.001-20zM943.982 610.2H825.714L643.783 860.495c-16.342 28.006-52.343 37.975-80.936 22.141-28.982-16.102-39.403-52.607-23.296-81.6.461-.821.968-1.61 1.541-2.359l142.693-188.479h-343.58L482.9 798.677c.563.75 1.08 1.539 1.541 2.359 16.072 28.92 5.767 65.459-23.32 81.615-28.529 15.805-64.529 5.844-80.904-22.141L198.278 610.199H80.009c-44.107 0-79.998-35.889-79.998-79.998 0-34.787 22.578-65.076 54.381-75.795 3.391-2.625 7.625-4.203 12.234-4.203.922 0 1.789-.054 2.695-.18 8.609-1.156 15.429-7.687 16.992-16.234L154.35 59.473c5.195-28.535 30.021-49.257 59.037-49.257h597.212c29.014 0 53.842 20.722 59.036 49.266l68.038 374.298a19.954 19.954 0 0017.031 16.242c.875.125 1.741.18 2.658.18 4.641 0 8.904 1.594 12.297 4.25 31.826 10.789 54.317 41.022 54.317 75.748 0 44.107-35.889 79.998-80 79.998zM573.973 821.512c-4.571 9.461-1.024 20.985 8.276 26.141 9.677 5.367 21.881 1.906 27.22-7.711.386-.719.833-1.406 1.313-2.062L776.264 610.2h-42.308l-159.98 211.313zm-160.75 16.36c.477.656.906 1.336 1.305 2.039 5.351 9.625 17.563 13.094 27.203 7.758 9.312-5.172 12.875-16.68 8.297-26.156L290.05 610.2h-42.311l165.486 227.672zm530.759-347.668H591.999c-11.05 0-20.001-8.953-20.001-20s8.951-19.797 20.001-19.797h308.785a60.55 60.55 0 01-2.453-9.266L830.284 66.637c-1.727-9.514-10.007-16.421-19.679-16.421H213.393a19.999 19.999 0 00-19.688 16.417l-68.037 374.313a60.498 60.498 0 01-2.453 9.258H432c11.047 0 20 8.953 20 20s-8.953 20-20 20H80.012c-22.242 0-39.998 18.125-39.998 39.998 0 22.055 17.945 39.998 39.998 39.998h863.966c22.058 0 39.999-17.945 39.999-39.998 0-22.211-18.171-39.998-39.999-39.998zM512 390.23c-33.083 0-59.998-26.913-59.998-60V170.236c0-33.083 26.915-59.995 59.998-59.995s60 26.913 60 59.995V330.23c0 33.148-26.852 60-60 60zm20.001-219.994c0-11.031-8.969-20.001-20.001-20.001s-20.001 8.969-20.001 20.001V330.23c0 11.031 8.969 20.001 20.001 20.001 11.041 0 20.001-8.96 20.001-20.001V170.236zm179.992-59.995c33.083 0 59.995 26.913 59.995 59.995V330.23c0 33.148-26.852 60-59.995 60-33.087 0-60-26.913-60-60V170.236c0-33.083 26.913-59.995 60-59.995zM691.995 330.23c0 11.031 8.969 20.001 20.001 20.001 11.036 0 20.001-8.96 20.001-20.001V170.236c0-11.031-8.969-20.001-20.001-20.001s-20.001 8.969-20.001 20.001V330.23zm-379.987 60c-33.084 0-59.998-26.913-59.998-60V170.236c0-33.083 26.914-59.995 59.998-59.995s59.998 26.913 59.998 59.995V330.23c0 33.148-26.852 60-59.998 60zm19.998-219.994c0-11.031-8.969-20.001-20-20.001s-20 8.969-20 20.001V330.23c0 11.031 8.969 20.001 20 20.001 11.039 0 20-8.951 20-20.001V170.236z"/><glyph unicode="" glyph-name="clock1" d="M77.766 661.592h158.189c8.285 0 15 6.715 15 15s-6.715 15-15 15H77.766c-8.284 0-15-6.715-15-15s6.714-15 15-15zm152.769-72.22h-62.49c-8.284 0-15-6.715-15-15s6.716-15 15-15h62.49c8.285 0 15 6.715 15 15s-6.715 15-15 15zM15.018 485.354h153.018c8.284 0 15 6.715 15 15s-6.716 15-15 15H15.018c-8.284 0-15-6.715-15-15s6.716-15 15-15zm235.938-265.923c0 8.285-6.715 15-15 15H77.767c-8.284 0-15-6.715-15-15 0-8.288 6.716-15 15-15h158.189c8.285 0 15 6.713 15 15zm-20.421 117.216h-62.49c-8.284 0-15-6.713-15-14.998 0-8.288 6.716-15 15-15h62.49c8.285 0 15 6.713 15 15 0 8.285-6.715 14.998-15 14.998zm-47.499 59.022c0 8.285-6.716 15-15 15H15.018c-8.284 0-15-6.715-15-15s6.716-15 15-15h153.018c8.284 0 15 6.715 15 15zm456.011 232.674c8.285 0 14.998 6.713 14.998 14.998v22.897c0 8.288-6.713 15-14.998 15-8.288 0-15-6.713-15-15v-22.897c0-8.285 6.713-14.998 15-14.998zm164.913-15.408c-5.86 5.855-15.355 5.855-21.215 0l-16.188-16.191c-5.86-5.86-5.86-15.355 0-21.213 5.862-5.86 15.355-5.857 21.213 0l16.191 16.188c5.855 5.86 5.855 15.355 0 21.215zm30.429-149.912c-8.288 0-15-6.715-15-15 0-8.288 6.713-15 15-15h22.894c8.285 0 14.998 6.713 14.998 15 0 8.285-6.713 15-14.998 15h-22.894zM787.769 320.5c-5.86 5.857-15.355 5.857-21.213 0-5.86-5.86-5.86-15.355 0-21.213l16.188-16.191c5.864-5.857 15.358-5.855 21.215 0 5.857 5.86 5.857 15.355 0 21.215l-16.191 16.188zm-163.722-67.826V229.78c0-8.285 6.713-14.998 15-14.998 8.285 0 14.998 6.713 14.998 14.998v22.894c0 8.285-6.713 15-14.998 15-8.288 0-15-6.715-15-15zM490.312 320.5l-16.191-16.188c-5.857-5.862-5.857-15.358 0-21.215 5.86-5.857 15.355-5.855 21.213 0l16.188 16.191c5.86 5.86 5.86 15.355 0 21.213-5.855 5.857-15.353 5.857-21.21 0zm-69.48 142.523c-8.283 0-15-6.715-15-15 0-8.288 6.717-15 15-15h22.897c8.283 0 15 6.713 15 15 0 8.285-6.717 15-15 15h-22.897zm90.702 133.722l-16.188 16.191c-5.86 5.855-15.358 5.855-21.213 0-5.857-5.86-5.857-15.355 0-21.215l16.191-16.188c5.86-5.86 15.355-5.857 21.21 0 5.86 5.857 5.86 15.353 0 21.213zm208.168-148.736c0 8.288-6.715 15-15 15h-50.659v111.364c0 8.285-6.713 15-14.998 15-8.288 0-15-6.715-15-15V448.009c0-8.285 6.713-14.998 15-14.998h65.657c8.283 0 15 6.713 15 14.998zm203.762 2.492c8.269.503 14.566 7.612 14.063 15.881-9.541 157.399-140.648 280.697-298.479 280.697-164.899 0-299.055-134.155-299.055-299.056 0-164.899 134.156-299.055 299.055-299.055 147.732 0 273.789 108.242 295.719 254.306 1.231 8.192-4.412 15.829-12.607 17.06-8.174 1.224-15.831-4.412-17.06-12.609-19.702-131.225-133.009-228.76-266.053-228.76-148.356 0-269.054 120.698-269.054 269.054s120.698 269.056 269.054 269.056c141.995 0 259.949-110.918 268.533-252.515.501-8.265 7.605-14.541 15.883-14.061zM639.045 832.942c-52.759 0-104.451-10.946-152.028-31.414H222.368c-8.284 0-15-6.714-15-15s6.716-15 15-15h208.217a384.586 384.586 0 01-76.921-65.205c-5.559-6.139-5.093-15.624 1.047-21.188 6.144-5.561 15.626-5.09 21.19 1.049 67.202 74.202 163.115 116.758 263.144 116.758 195.708 0 354.934-159.22 354.934-354.93 0-195.706-159.221-354.929-354.934-354.929-195.708 0-354.929 159.219-354.929 354.929 0 68.533 19.579 135.052 56.612 192.363 4.496 6.959 2.501 16.243-4.458 20.739-6.959 4.494-16.243 2.501-20.739-4.458-40.177-62.175-61.415-134.322-61.415-208.645 0-135.528 70.411-254.907 176.566-323.515H222.369c-8.284 0-15-6.713-15-14.998 0-8.288 6.716-15 15-15h264.44C533.526 74.3 585 63.084 639.047 63.084c212.249 0 384.928 172.679 384.928 384.928S851.296 832.94 639.045 832.94z"/><glyph unicode="" glyph-name="computer" d="M948.977 948.65H75.023C33.669 948.65.027 913.189.027 869.6V173.961c0-43.589 33.643-79.051 74.996-79.051h320.098l-18.055-66.601C369.818 1.565 341.4-21.029 315.01-21.029H202.017c-8.283 0-14.999-7.079-14.999-15.81 0-8.734 6.715-15.81 14.999-15.81h619.969c8.283 0 14.999 7.077 14.999 15.81 0 8.731-6.716 15.81-14.999 15.81H708.992c-26.39 0-54.809 22.594-62.056 49.338L628.881 94.91h320.097c41.354 0 74.997 35.462 74.997 79.051V869.6c0 43.589-33.644 79.05-74.997 79.05zM75.022 917.03h873.954c24.812 0 44.998-21.278 44.998-47.43V316.251H30.024V869.6c0 26.152 20.185 47.43 44.997 47.43zM618.089 19.622c4.115-15.188 12.296-29.141 23.023-40.651H382.889c10.727 11.51 18.907 25.466 23.023 40.651l20.406 75.288h171.361l20.41-75.288zM948.977 126.53H75.023c-24.812 0-44.997 21.279-44.997 47.431V284.63h963.95V173.961c0-26.152-20.185-47.431-44.998-47.431zM75.022 347.869h873.954c8.285 0 14.999 7.077 14.999 15.81V869.6c0 8.733-6.714 15.81-14.999 15.81H75.022c-8.283 0-14.999-7.077-14.999-15.81V648.259c0-8.734 6.716-15.81 14.999-15.81s14.999 7.077 14.999 15.81V853.79h843.956v-474.3H90.021v205.531c0 8.734-6.715 15.81-14.999 15.81s-14.999-7.077-14.999-15.81V363.68c0-8.734 6.716-15.81 14.999-15.81zm436.997-94.859c-24.812 0-44.995-21.279-44.995-47.431s20.183-47.428 44.995-47.428c24.812 0 44.998 21.276 44.998 47.428s-20.185 47.431-44.998 47.431zm0-63.241c-8.272 0-14.999 7.093-14.999 15.81 0 8.72 6.728 15.81 14.999 15.81s14.999-7.09 14.999-15.81c0-8.718-6.728-15.81-14.999-15.81z"/><glyph unicode="" glyph-name="container" d="M512 431.999a15.99 15.99 0 01-11.313-4.686A15.99 15.99 0 01495.998 416V96c0-4.244 1.687-8.313 4.689-11.313 2.999-3.002 7.068-4.686 11.313-4.686s8.313 1.684 11.313 4.686A15.99 15.99 0 01528.002 96v320c0 4.244-1.687 8.313-4.689 11.313A15.987 15.987 0 01512 431.999zm-80.001 0A15.997 15.997 0 01416 416V96a16.003 16.003 0 0115.999-15.999A15.998 15.998 0 01448 96v320a16.003 16.003 0 01-16.001 15.999zm-79.999 0a15.99 15.99 0 01-11.313-4.686A15.987 15.987 0 01336.001 416V96a15.99 15.99 0 014.686-11.313c2.999-3.002 7.068-4.686 11.313-4.686s8.313 1.684 11.313 4.686A15.987 15.987 0 01367.999 96v320a15.99 15.99 0 01-4.686 11.313A15.987 15.987 0 01352 431.999zm-79.999 0A15.995 15.995 0 01256 416V96a15.999 15.999 0 0127.314-11.313A16 16 0 01288 96v320a16.003 16.003 0 01-15.999 15.999zm-80.001 0A15.996 15.996 0 01176 416V96a15.999 15.999 0 0127.314-11.313A15.99 15.99 0 01208 96v320a15.999 15.999 0 01-16 15.999zm-80 0A15.996 15.996 0 0196 416V96a15.999 15.999 0 0127.314-11.313A15.99 15.99 0 01128 96v320a15.999 15.999 0 01-16 15.999zm800.001 0A15.998 15.998 0 01896 416V160a16.003 16.003 0 0116.001-15.999A15.997 15.997 0 01928 160v256a16.003 16.003 0 01-15.999 15.999zm-80.001 0a15.99 15.99 0 01-11.313-4.686A15.99 15.99 0 01815.998 416V96c0-4.244 1.687-8.313 4.689-11.313 2.999-3.002 7.068-4.686 11.313-4.686s8.313 1.684 11.313 4.686A15.99 15.99 0 01848.002 96v320c0 4.244-1.687 8.313-4.689 11.313A15.987 15.987 0 01832 431.999zm-80.001 0A15.997 15.997 0 01736 416V96a16.003 16.003 0 0115.999-15.999A15.998 15.998 0 01768 96v320a16.003 16.003 0 01-16.001 15.999zm-79.999 0a15.99 15.99 0 01-11.313-4.686A15.987 15.987 0 01656.001 416V96a15.99 15.99 0 014.686-11.313c2.999-3.002 7.068-4.686 11.313-4.686s8.313 1.684 11.313 4.686A15.987 15.987 0 01687.999 96v320a15.99 15.99 0 01-4.686 11.313A15.987 15.987 0 01672 431.999zm-79.999 0A15.998 15.998 0 01576 416V96a16.003 16.003 0 0116.001-15.999A15.997 15.997 0 01608 96v320a16.003 16.003 0 01-15.999 15.999zm320-303.999a16.01 16.01 0 01-11.315-4.686A16.01 16.01 0 01896 111.999V96a16.003 16.003 0 0116.001-15.999A15.997 15.997 0 01928 96v15.999a16.01 16.01 0 01-4.686 11.315A16.01 16.01 0 01912.001 128zM992 544h-76.859L572.802 684.059a64.014 64.014 0 012.932 25.818 63.972 63.972 0 01-47.733 56.104v34.02H544a15.999 15.999 0 0115.999 16v32H704c4.244 0 8.313 1.686 11.313 4.686a15.997 15.997 0 014.689 11.314v64c0 4.243-1.687 8.313-4.689 11.314A15.99 15.99 0 01704 944.001H320a15.999 15.999 0 01-11.313-4.686 15.997 15.997 0 01-4.689-11.314v-64c0-4.243 1.687-8.313 4.689-11.314A15.99 15.99 0 01320 848.001h144.001v-32a15.996 15.996 0 0115.999-16h15.999v-48c0-4.243 1.687-8.313 4.689-11.314a15.99 15.99 0 0111.313-4.686 32.004 32.004 0 0031.386-38.243 31.996 31.996 0 00-25.142-25.143 32.01 32.01 0 00-32.852 13.609 31.985 31.985 0 00-5.392 17.777 16.001 16.001 0 01-32 0 63.933 63.933 0 013.199-19.941L108.861 544.001h-76.86a16.001 16.001 0 01-16-15.999V-31.999a15.999 15.999 0 0116-15.999h960a15.99 15.99 0 0111.313 4.686A15.987 15.987 0 011008-31.999v560.001a15.997 15.997 0 01-15.999 15.999zM336.001 880v32h351.997v-32H336.001zm159.998-48v16h32.003v-16h-32.003zM128 517.26l340.919 139.461a63.858 63.858 0 0186.162 0L896 517.26v-21.261H128v21.261zM48 512h48v-16.001H48V512zM976.001-16.001H48v32.003h928.001v-32.003zm0 64H48v416.003h928.001V47.999zm0 448H928V512h48.001v-16.001z"/><glyph unicode="" glyph-name="money" d="M1022.564 390.042c-.003.005-.003.008-.005.013L829.223 875.504c-4.104 10.315-15.793 15.35-26.109 11.247a.1.1 0 01-.021-.01L18.756 574.425a19.688 19.688 0 01-8.041-6.391 19.877 19.877 0 01-10.714-17.45V27.95c0-11.101 9-20.102 20.101-20.102h844.26c11.099 0 20.099 9.001 20.099 20.102v285.439l126.881 50.536c10.311 4.112 15.334 15.806 11.222 26.117zM844.259 48.049H40.203v482.435h804.056V48.049zM335.392 570.586L671.97 704.702a159.922 159.922 0 01115.242-49.692l33.569-84.425H335.392zM884.46 356.567v194.016c0 11.101-9.001 20.102-20.099 20.102h-.323l-42.596 106.979a16.663 16.663 0 01-1.646 2.534c-2.156 9.681-11.122 16.287-21.008 15.478a120.206 120.206 0 00-105.391 45.389c-6.265 7.731-17.274 9.654-25.789 4.503a22.498 22.498 0 01-2.836-.523L253.859 581.418a19.854 19.854 0 01-11.036-10.734H118.034l681.275 271.269L977.79 393.792l-93.331-37.226zM94.763 183.755a120.186 120.186 0 0081.149-81.048 20.1 20.1 0 0119.257-14.352 18.51 18.51 0 013.096.462 18.736 18.736 0 012.754-.565h482.433c.83.108 1.649.278 2.452.504 10.043-2.442 20.165 3.715 22.609 13.758l.026.11a120.178 120.178 0 0081.148 81.151c9.471 2.893 15.355 12.333 13.79 22.111.268.974.462 1.969.583 2.975v160.813a18.203 18.203 0 01-.604 2.975c1.575 9.781-4.311 19.225-13.79 22.111a120.068 120.068 0 00-81.109 81.169c-2.909 9.536-12.44 15.436-22.271 13.79-.932.26-1.877.446-2.836.565H201.017a19.1 19.1 0 01-2.995-.604c-9.777 1.557-19.209-4.324-22.112-13.79a120.19 120.19 0 00-81.149-81.13c-9.47-2.893-15.355-12.333-13.789-22.111a20.284 20.284 0 01-.563-2.975V208.861c.116-.945.304-1.88.563-2.794-1.648-9.841 4.249-19.385 13.789-22.313zm25.85 177.756a159.512 159.512 0 0188.567 88.568h466.09a159.559 159.559 0 0188.587-88.568V217.022a159.686 159.686 0 01-88.565-88.565H209.181a159.687 159.687 0 01-88.567 88.565v144.489zm321.629-192.856c66.613 0 120.609 53.996 120.609 120.609 0 66.61-53.996 120.609-120.609 120.609-66.61 0-120.606-53.999-120.606-120.609.063-66.584 54.023-120.543 120.606-120.609zm0 201.014c44.407 0 80.408-36 80.408-80.405 0-44.407-36-80.408-80.408-80.408-44.405 0-80.405 36-80.405 80.408 0 44.405 36 80.405 80.405 80.405zM221.107 259.132c16.651 0 30.152 13.501 30.152 30.15 0 16.652-13.501 30.153-30.152 30.153s-30.152-13.501-30.152-30.153 13.501-30.15 30.152-30.15zm0 40.202c5.55 0 10.051-4.5 10.051-10.051s-4.5-10.051-10.051-10.051-10.051 4.5-10.051 10.051 4.5 10.051 10.051 10.051zm442.238-40.202c16.652 0 30.153 13.501 30.153 30.15 0 16.652-13.501 30.153-30.153 30.153s-30.153-13.501-30.153-30.153 13.501-30.15 30.153-30.15zm0 40.202c5.551 0 10.051-4.5 10.051-10.051s-4.5-10.051-10.051-10.051-10.051 4.5-10.051 10.051 4.5 10.051 10.051 10.051z"/><glyph unicode="" glyph-name="payment" d="M838.039 276.973H735.421v-34.204h102.618v34.204zm-136.809 0H598.612v-34.204H701.23v34.204zm-136.817 0H461.797v-34.204h102.616v34.204zm444.434 328.319L670.431 943.759a51.084 51.084 0 01-36.36 15.136h-.154a50.595 50.595 0 01-36.069-15.136L238.858 584.82H51.308c-28.337 0-51.309-22.97-51.309-51.308V54.633c0-28.338 22.971-51.31 51.309-51.31h253.396l51.036-51.087a51.078 51.078 0 0136.36-15.134h.137a50.617 50.617 0 0136.085 15.134L479.46 3.323h392.785c28.338 0 51.308 22.973 51.308 51.31v392.782l85.208 85.208A50.724 50.724 0 011024 568.778a51.102 51.102 0 01-15.153 36.514zm-217.567 169.2L601.611 584.82H456.373l262.29 262.291 72.618-72.619zM622.067 919.644c6.505 6.664 17.182 6.792 23.846.284.097-.094.194-.188.286-.284l48.282-48.35L407.99 584.82H287.228l334.84 334.824zM404.105-23.649a16.639 16.639 0 00-11.97-5.131 17.108 17.108 0 00-12.178 5.131L353.088 3.323h78.007l-26.99-26.972zm485.244 78.282c0-9.445-7.658-17.103-17.103-17.103H51.309c-9.445 0-17.103 7.658-17.103 17.103v239.438H889.35V54.633zm0 273.645H34.205v102.616h855.144V328.278zm0 136.823H34.205v68.411c0 9.445 7.658 17.103 17.103 17.103h820.937c9.445 0 17.103-7.658 17.103-17.103v-68.411zm95.313 91.791l-61.109-61.109v37.729c0 28.338-22.97 51.308-51.308 51.308H649.908l165.486 165.488 169.2-169.199a17.113 17.113 0 005.131-12.229 16.768 16.768 0 00-5.063-11.989zM164.057 71.26a68.645 68.645 0 016.995 6.996c22.617-26.341 61.476-31.348 90.03-11.595a69.551 69.551 0 0129.691 56.371c0 37.783-30.629 68.411-68.412 68.411a51.849 51.849 0 01-10.125-.854l-.445-.121h-.496a67.532 67.532 0 01-40.243-22.711c-24.713 28.578-67.918 31.712-96.494 6.996-28.579-24.713-31.711-67.918-6.995-96.496 24.713-28.578 67.915-31.709 96.494-6.996zm53.977 85.617c1.426.272 2.876.391 4.327.361 18.892 0 34.206-15.314 34.206-34.207a33.547 33.547 0 00-6.721-20.062c-.616-.838-1.095-1.708-1.796-2.582-.12-.137-.291-.224-.428-.358a34.06 34.06 0 00-25.261-11.202c-18.888.321-33.941 15.894-33.618 34.781.286 16.772 12.69 30.863 29.291 33.269zm-98.29.361c18.892 0 34.206-15.314 34.206-34.207s-15.314-34.204-34.206-34.204c-18.892 0-34.206 15.311-34.206 34.204s15.313 34.207 34.206 34.207z"/><glyph unicode="" glyph-name="person" d="M857.6 53.882V-46.932c0-9.426-7.644-17.068-17.068-17.068-9.426 0-17.068 7.641-17.068 17.068V53.882c0 78.497-63.518 142.02-142.023 142.018-37.141 0-70.841 18.922-90.148 50.619-4.907 8.051-2.355 18.554 5.696 23.455 8.045 4.904 18.548 2.352 23.452-5.698 13.06-21.443 35.868-34.243 61-34.243 97.363.006 176.158-78.782 176.158-176.15zM619.492 178.17c6.072-7.212 5.148-17.978-2.065-24.047-25.132-21.158-56.007-34.188-88.363-37.606V38.4c0-9.426-7.641-17.068-17.065-17.068-9.426 0-17.068 7.641-17.068 17.068v78.087c-52.794 5.527-99.751 36.441-125.697 82.811a106.224 106.224 0 00-26.679-3.396c-78.674 0-142.024-63.679-142.024-142.018V-46.933c0-9.426-7.642-17.068-17.066-17.068s-17.067 7.641-17.067 17.068V53.881c0 97.357 78.782 176.15 176.152 176.15 39.38 0 71.315 31.725 71.315 71.132v4.495c-74.495 35.619-126.782 110.473-129.968 197.638-30.657 7.37-53.498 34.81-53.498 67.457v207.914c0 37.229 27.39 68.181 63.074 73.768C324.127 918.122 389.397 960 462.616 960h146.363c102.976 0 186.753-83.778 186.753-186.754V570.753c0-9.426-7.641-17.068-17.065-17.068-9.426 0-17.068 7.641-17.068 17.068v202.493c0 84.156-68.464 152.621-152.62 152.621H462.616c-62.768 0-118.394-37.658-141.705-95.938a17.064 17.064 0 00-15.844-10.728c-22.351 0-40.534-18.182-40.534-40.533V570.754c0-13.544 7.8-25.312 19.199-31.224v110.642c0 65.872 53.594 119.465 119.468 119.465h217.6c65.876 0 119.468-53.589 119.468-119.46v-139.74c0-148.425-145.043-261.162-292.632-217.713-2.651-33.629-20.881-62.204-47.054-79.485 40.672-68.702 133.463-84.69 194.864-33 7.207 6.064 17.975 5.142 24.047-2.067zM512 317.601c107.044 0 194.131 87.087 194.131 194.134v138.442c0 47.048-38.278 85.327-85.332 85.327h-217.6c-47.051 0-85.332-38.28-85.332-85.332V511.736c0-107.047 87.087-194.134 194.134-194.134z"/><glyph unicode="" glyph-name="robotic-arm" d="M280.47 288.291c-24.395 0-44.241-20.949-44.241-46.699 0-25.748 19.848-46.699 44.241-46.699s44.241 20.952 44.241 46.699c0 25.751-19.847 46.699-44.241 46.699zm0-63.395c-8.723 0-15.821 7.491-15.821 16.699s7.098 16.699 15.821 16.699c8.723 0 15.821-7.491 15.821-16.699s-7.098-16.699-15.821-16.699zm69.183 602.516c0 40.267-31.034 73.027-69.182 73.027s-69.183-32.759-69.183-73.027c0-40.265 31.035-73.025 69.183-73.025s69.182 32.759 69.182 73.025zm-109.944 0c0 23.726 18.286 43.027 40.763 43.027 22.475 0 40.76-19.302 40.76-43.027s-18.286-43.025-40.76-43.025c-22.477 0-40.763 19.302-40.763 43.025zm329.162-138.994c-24.393 0-44.238-20.952-44.238-46.699 0-25.751 19.847-46.699 44.238-46.699 24.395 0 44.241 20.949 44.241 46.699 0 25.748-19.847 46.699-44.241 46.699zm0-63.398c-8.723 0-15.821 7.491-15.821 16.699s7.098 16.702 15.821 16.702c8.726 0 15.823-7.494 15.823-16.702s-7.098-16.699-15.823-16.699zm416.857-251.865l-91.49 96.559v67.559c16.877 2.776 29.849 18.179 29.849 36.758 0 8.286-6.362 15.002-14.209 15.002-7.85 0-14.212-6.715-14.212-15.002 0-3.996-3.08-7.249-6.866-7.249h-88.307c-3.789 0-6.869 3.253-6.869 7.249v87.555l34.219 16.721c10.677 5.22 22.93 5.22 33.608 0l17.133-8.373c10.38-5.071 17.085-16.15 17.085-28.218 0-8.286 6.362-15.002 14.212-15.002 7.847 0 14.209 6.715 14.209 15.002 0 23.714-13.177 45.478-33.565 55.444l-17.133 8.374c-18.27 8.926-39.221 8.926-57.489 0l-38.922-19.019-126.524 13.677c-17.769 27.541-47.712 45.665-81.59 45.665-48.038 0-88.143-36.435-96.874-84.493l-112.139 63.42c23.382 20.19 39.765 49.083 44.667 81.953l71.765-52.813c2.476-1.822 5.309-2.696 8.114-2.696 4.489 0 8.909 2.24 11.671 6.422 4.489 6.796 2.908 16.146-3.53 20.884l-87.356 64.287c-7.26 65.867-60.407 117.172-124.722 117.172-69.253 0-125.594-59.471-125.594-132.572 0-47.273 23.582-88.82 58.961-112.296l-25.897-393.776c-20.518-23.606-33.066-55.05-33.066-89.536v-102.57c-30.942.763-59.227-20.391-66.195-52.832-21.793.569-42.604-8.143-47.953-33.034L28.776-12.179c-5.62-26.152 13.866-51.808 39.193-51.808h318.443c7.847 0 14.209 6.715 14.209 14.999 0 8.286-6.362 15.002-14.209 15.002H67.969c-7.416 0-13.125 7.502-11.476 15.169l11.944 55.559c1.224 5.694 5.942 9.671 11.476 9.671h401.099c5.532 0 10.253-3.977 11.48-9.674l11.94-55.556c1.641-7.634-4.026-15.171-11.474-15.171H455.26c-7.85 0-14.212-6.715-14.212-14.999s6.362-15.002 14.212-15.002h37.698c25.331 0 44.815 25.646 39.191 51.811l-11.943 55.556c-5.352 24.891-26.163 33.602-47.955 33.034-6.961 32.403-35.268 53.649-66.195 52.832v102.57c0 34.484-12.547 65.928-33.063 89.533L348.274 697.3l122.838-69.473c6.457-50.876 47.817-90.247 97.755-90.247 33.877 0 63.818 18.125 81.59 45.664l114.745 12.407v-21.617c0-18.578 12.97-33.98 29.843-36.758v-67.559l-91.49-96.559c-14.023-14.797-14.026-39.674-.003-54.476 20.184-21.305 44.29-35.114 69.267-48.903 31.554-17.421 62.635 27.338 37.308 53.845l-21.35 22.342 44.303 46.753c6.381 6.734 16.761 6.734 23.14 0l44.699-47.181-22.655-25.759c-24.247-27.569 8.612-71.224 39.59-52.131 22.975 14.164 45.804 27.736 64.821 47.812 15.473 15.549 19.17 40.69 3.05 57.699zM183.29 827.419c0 56.559 43.591 102.572 97.173 102.572s97.173-46.013 97.173-102.572c0-56.557-43.592-102.572-97.173-102.572s-97.173 46.015-97.173 102.572zm97.174-132.572c13.633 0 26.751 2.336 39.052 6.594l23.318-354.633c-18.394 11.156-39.679 17.572-62.369 17.572s-43.974-6.416-62.366-17.572l23.322 354.629c12.299-4.256 25.414-6.59 39.044-6.59zM442.496 76.408H118.431c5.512 13.42 18.186 22.833 32.901 22.833h258.261c14.719 0 27.388-9.41 32.902-22.833zm-64.862 52.832H183.29v102.57c0 56.559 43.591 102.573 97.173 102.573s97.173-46.012 97.173-102.573V129.24h-.003zm191.232 438.337c-38.73 0-70.24 33.26-70.24 74.142 0 40.878 31.509 74.139 70.24 74.139s70.24-33.26 70.24-74.139c-.003-40.884-31.509-74.142-70.24-74.142zm95.322 47.305a109.464 109.464 0 013.336 26.834 109.44 109.44 0 01-3.336 26.834l101.013-10.919v-31.827l-101.013-10.922zm201.63-78.101v-58.283h-42.352v58.283h42.352zm99.817-196.889c-18.3-19.537-39.889-32.646-62.115-46.346-3.959-2.452-6.707 3.226-4.425 5.818l31.969 36.348c5.201 5.915 5.039 15.107-.366 20.811l-54.381 57.405c-8.731 9.213-20.197 13.821-31.665 13.821-11.466 0-22.935-4.605-31.662-13.816l-54.398-57.408c-5.495-5.802-5.476-15.487.04-21.261l31.487-32.95c2.414-2.525-.186-8.135-4.128-5.955-22.391 12.361-44.214 24.401-62.342 43.532-3.115 3.288-3.112 8.763 0 12.048l91.495 96.559h58.998l91.492-96.559c3.115-3.285 3.115-8.761 0-12.048z"/><glyph unicode="" glyph-name="truck" d="M198.788 270.613h-.158c-8.096 0-14.579-6.714-14.579-14.999s6.642-14.999 14.737-14.999c8.096 0 14.659 6.714 14.659 14.999s-6.564 14.999-14.659 14.999zm125.348 0h-.156c-8.097 0-14.583-6.714-14.583-14.999s6.642-14.999 14.739-14.999c8.094 0 14.659 6.714 14.659 14.999s-6.565 14.999-14.659 14.999zm517.057 0h-.158c-8.094 0-14.58-6.714-14.58-14.999s6.642-14.999 14.739-14.999c8.094 0 14.657 6.714 14.657 14.999s-6.563 14.999-14.657 14.999zm157.7 181.343l-19.71 20.168-39.708 121.893c5.925 1.927 10.219 7.596 10.219 14.294 0 8.285-6.563 14.999-14.659 14.999H793.016v65.157c0 17.112-13.603 31.032-30.327 31.032H41.963c-16.723 0-30.327-13.922-30.327-31.032V335.76c0-17.112 13.604-31.034 30.327-31.034h16.676v-33.087c0-17.112 13.604-31.032 30.327-31.032h33.757c6.872-36.48 38.292-64.128 75.919-64.128 25.765 0 48.612 12.972 62.671 32.856 14.061-19.884 36.906-32.856 62.671-32.856 37.627 0 69.05 27.648 75.92 64.128h365.203c6.872-36.48 38.291-64.128 75.918-64.128 42.64 0 77.331 35.498 77.331 79.127 0 .344-.021.682-.026 1.024h63.707c16.724 0 30.327 13.919 30.327 31.032v131.016c.002 12.57-4.783 24.39-13.47 33.278zm-876.17-181.35H88.966a1.02 1.02 0 00-1.008 1.031v33.089h50.124a79.658 79.658 0 01-15.359-34.12zm75.919-64.13c-26.474 0-48.012 22.039-48.012 49.126 0 26.987 21.377 48.954 47.713 49.124h.602c26.335-.168 47.714-22.135 47.714-49.124-.002-27.087-21.542-49.126-48.017-49.126zm125.345 0c-26.475 0-48.014 22.039-48.014 49.126 0 26.987 21.378 48.954 47.714 49.124h.603c26.335-.168 47.711-22.135 47.711-49.124-.002-27.087-21.539-49.126-48.014-49.126zm441.123 64.13H399.905a79.59 79.59 0 01-15.36 34.12h284.134c8.097 0 14.659 6.717 14.659 15.002 0 8.283-6.563 14.999-14.659 14.999H41.963a1.02 1.02 0 00-1.008 1.033v352.707c0 .57.451 1.033 1.008 1.033h720.724c.559 0 1.01-.463 1.01-1.033V334.724h-32.34c-8.094 0-14.657-6.717-14.657-14.999 0-8.285 6.563-14.999 14.657-14.999h49.11a79.657 79.657 0 01-15.358-34.12zm186.144 192.386h-94.559a1.02 1.02 0 00-1.008 1.031v65.161h74.005l21.562-66.192zM841.027 206.476c-26.475 0-48.012 22.039-48.012 49.126 0 26.987 21.378 48.954 47.714 49.124h.3a1.2 1.2 0 01.102.005c26.426-.056 47.912-22.072 47.912-49.126-.005-27.089-21.541-49.129-48.016-49.129zm142.02 81.184a1.02 1.02 0 00-1.008-1.033H912.16c-11.816 28.255-39.247 48.105-71.133 48.105-.102 0-.2-.009-.3-.009h-47.711v257.559c0 .57.451 1.033 1.01 1.033h114.776l11.117-34.129h-78.892c-8.094 0-14.659-6.717-14.659-14.999v-80.163c0-17.112 13.605-31.032 30.327-31.032h119.27l2.197-2.248c3.149-3.223 4.885-7.508 4.885-12.067v-35.854h-16.675c-8.097 0-14.659-6.717-14.659-15.002 0-8.283 6.563-14.999 14.659-14.999h16.675v-65.161zM715.671 398.864H88.954c-8.096 0-14.659-6.717-14.659-15.002 0-8.283 6.563-14.999 14.659-14.999h626.717c8.097 0 14.659 6.717 14.659 14.999 0 8.285-6.563 15.002-14.659 15.002z"/><glyph unicode="" glyph-name="water-drop" d="M399.51 78.773c-98.766 30.71-165.126 120.904-165.126 224.434 0 50.607 15.843 98.82 45.817 139.429.684.927 1.301 1.94 1.817 2.97 4.951 9.904.93 21.934-8.975 26.886-8.965 4.489-19.689 1.604-25.315-6.323-34.963-47.496-53.444-103.84-53.444-162.961 0-59.869 18.904-116.791 54.668-164.608 34.568-46.221 83.806-81.069 138.652-98.12a20.029 20.029 0 015.959-.91c8.548 0 16.469 5.513 19.14 14.106 3.288 10.576-2.617 21.811-13.193 25.099zm513.956 412.664c0 38.169-11.893 74.532-34.403 105.197L752.137 785.057c-3.729 5.532-9.961 8.849-16.631 8.849s-12.902-3.317-16.631-8.849l-53.483-79.397-165.37 245.483a20.052 20.052 0 01-33.258 0L182.886 529.741c-47.365-64.366-72.395-140.712-72.395-220.83 0-205.618 167.283-372.9 372.9-372.9 205.615 0 372.9 167.282 372.9 372.9a376.66 376.66 0 01-3.228 49.046c37.008 32.633 60.401 80.374 60.401 133.482zM735.507 737.964l110.291-163.727c.222-.338.452-.674.697-1.004 17.579-23.805 26.869-52.089 26.869-81.794 0-76.014-61.84-137.856-137.856-137.856-76.014 0-137.856 61.843-137.856 137.856 0 29.704 9.293 57.989 26.871 81.794.233.316.455.637.668.967l56.791 84.304c.105.154.213.307.313.466l53.213 78.993zm80.68-429.054c0-183.506-149.293-332.797-332.797-332.797-183.506 0-332.797 149.291-332.797 332.797 0 71.67 22.438 139.955 64.89 197.466.243.327.477.668.704 1.021l267.207 396.656 157.824-234.284-49.268-73.138c-22.508-30.662-34.403-67.028-34.403-105.194 0-98.126 79.834-177.96 177.96-177.96 28.694 0 55.816 6.838 79.843 18.95a337.84 337.84 0 00.839-23.518zM664.795 496.32c0 9.714 1.98 19.092 5.879 27.866 4.5 10.121-.057 21.97-10.175 26.468-10.121 4.494-21.968-.054-26.468-10.175-6.198-13.941-9.341-28.796-9.341-44.159 0-36.391 18.079-70.217 48.357-90.477a19.946 19.946 0 0111.133-3.388c6.468 0 12.817 3.126 16.683 8.903 6.158 9.205 3.689 21.658-5.515 27.815-19.132 12.803-30.554 34.166-30.554 57.147zM473.866 50.999c-4.91 12.902-23.225 16.583-32.704 6.497-11.287-10.937-5.211-31.021 10.268-33.825 15.343-3.362 28.719 12.925 22.437 27.329zm251.096 336.575c12.928-8.957 31.444.944 31.18 16.663.29 15.718-18.261 25.64-31.18 16.683-11.711-7.339-11.756-26.032 0-33.344z"/><glyph unicode="" glyph-name="box" horiz-adv-x="1016" d="M899.005 621.197L1011.602 734.3a15.125 15.125 0 014.237 10.521c0 .841-.068 1.667-.2 2.471l.012-.088c-.943 4.487-3.73 8.187-7.514 10.334l-.076.04-369.166 200.65c-2.056 1.083-4.492 1.718-7.077 1.718a15.383 15.383 0 01-10.641-4.254l.006.006L508.08 842.342 394.724 955.698A14.877 14.877 0 01384.239 960l-.149-.001h.008a16.126 16.126 0 01-7.175-1.814l.09.043-118.67-64.269c-3.438-1.869-5.991-4.999-7.06-8.754l-.025-.102a13.39 13.39 0 01-.702-4.323c0-2.61.732-5.049 2.001-7.123l-.034.06c2.466-4.84 7.412-8.097 13.118-8.097h.041-.002c2.621.09 5.05.83 7.156 2.063l108.477 58.663 101.211-101.211-341.839-185.469L39.474 740.877l180.408 98.174c3.559 1.796 6.214 4.946 7.313 8.756l.025.1c.366 1.186.576 2.55.576 3.962 0 2.546-.683 4.931-1.877 6.984l.036-.066c-2.575 4.706-7.491 7.844-13.14 7.844h-.018.001a13.851 13.851 0 01-7.153-1.807l.069.036L7.847 757.577c-4.02-2.234-6.865-6.164-7.58-10.797l-.011-.084c-.089-.622-.14-1.34-.14-2.071a15.38 15.38 0 014.443-10.835l-.002.002 112.344-113.103L4.557 507.839a14.138 14.138 0 01-4.49-10.348c0-.813.069-1.611.2-2.387l-.012.084a15.484 15.484 0 017.517-11.094l.074-.04 114.621-62.245V145.504l379.54-207.735h12.398L884.33 137.66v284.149l123.73 62.245c3.97 2.29 6.79 6.192 7.578 10.789l.013.091c.131.742.205 1.596.205 2.468 0 4.063-1.623 7.747-4.257 10.439l.003-.003zm-264.413 305.15l341.586-184.963-101.211-101.211L532.875 824.63zM144.984 443.825L39.725 501.009 140.936 602.22l342.345-184.963L382.07 316.046 145.237 443.825zM492.896-23.769L153.081 159.929v245.436l223.929-121.2a14.255 14.255 0 017.07-2.024h.015c4.178 0 7.949 1.746 10.622 4.549l98.18 98.18zm15.182 462.027l-338.55 182.938 338.55 182.938 338.297-182.938zm362.841 5.567l-74.896-40.484c-3.513-1.965-6.138-5.165-7.309-9l-.029-.109a14.85 14.85 0 01-.55-4.05c0-8.311 6.678-15.062 14.962-15.18h.011c2.594.047 5.025.696 7.175 1.814l-.09-.043 52.883 28.592V159.929L523.008-23.769v408.638l98.174-98.174a15.636 15.636 0 0110.605-4.554h.022a13.6 13.6 0 017.143 2.058l-.058-.034 118.67 64.016c4.649 2.78 7.714 7.787 7.714 13.51 0 2.545-.606 4.949-1.682 7.075l.041-.09c-2.696 4.709-7.687 7.833-13.409 7.844h-.002a18.161 18.161 0 01-7.193-1.819l.108.048-108.549-58.955-101.211 101.211 342.345 185.216L976.937 501.01z"/><glyph unicode="" glyph-name="calendar" d="M923.963 872.041h-95.311v27.832c.084 1.188.131 2.574.131 3.971 0 33.207-26.92 60.127-60.127 60.127s-60.127-26.92-60.127-60.127c0-1.397.048-2.783.141-4.157l-.01.186v-27.832H372.578v27.832c.084 1.188.131 2.574.131 3.971 0 33.207-26.92 60.127-60.127 60.127s-60.127-26.92-60.127-60.127c0-1.397.048-2.783.141-4.157l-.01.186v-28.619a16.978 16.978 0 01-5.349-.013l.097.013h-78.769c-55.136-.149-99.774-44.88-99.774-100.037V429.884c0-11.021 8.934-19.955 19.955-19.955s19.955 8.934 19.955 19.955v236.045h719.951c10.132 1.194 17.917 9.731 17.917 20.086s-7.785 18.892-17.822 20.077l-.095.009H107.651v65.904c0 33.062 26.802 59.865 59.865 59.865h78.769a31.888 31.888 0 015.369.008l-.118-.008v-26.256c2.145-31.454 28.186-56.156 59.996-56.156s57.851 24.702 59.986 55.97l.01.186v26.256h337.395v-26.256c2.145-31.454 28.186-56.156 59.996-56.156s57.851 24.702 59.986 55.97l.01.186v26.256h95.312c33.115 0 59.977-26.77 60.127-59.85V12.145c.084-.923.131-1.997.131-3.082 0-20.011-16.222-36.234-36.234-36.234s-36.234 16.222-36.234 36.234c0 1.085.048 2.158.141 3.219l-.01-.137v52.513c0 11.021-8.934 19.955-19.955 19.955H659.299c-10.132-1.194-17.917-9.731-17.917-20.086s7.785-18.892 17.822-20.077l.095-.009h212.677V12.933c.017-13.279 3.419-25.759 9.389-36.63l-.199.396H75.882c-19.807.148-35.824 16.165-35.971 35.957v30.997h447.672c10.132 1.194 17.917 9.731 17.917 20.086s-7.785 18.892-17.822 20.077l-.095.009H288.822c34.976 30.22 56.976 74.637 56.976 124.192 0 90.486-73.354 163.84-163.84 163.84s-163.84-73.354-163.84-163.84c0-49.555 22.001-93.972 56.768-124.016l.209-.176H19.957C8.936 83.825.002 74.891.002 63.87V11.357c.444-41.622 34.216-75.21 75.867-75.356h871.989c42.053 0 76.144 34.091 76.144 76.144v759.861c-.149 55.189-44.848 99.888-100.023 100.037h-.014zm-591.294-65.116c0-11.021-8.934-19.955-19.955-19.955s-19.955 8.934-19.955 19.955v92.948c0 11.021 8.934 19.955 19.955 19.955s19.955-8.934 19.955-19.955zm455.023 0c0-11.021-8.934-19.955-19.955-19.955h-.002c-11.073 0-20.068 8.903-20.216 19.941v92.962c.146 11.107 9.111 20.071 20.204 20.217h.014c11.052-.148 19.955-9.142 19.955-20.216v-.002zM56.976 208.016c0 68.445 55.485 123.93 123.93 123.93s123.93-55.485 123.93-123.93c0-68.445-55.485-123.93-123.93-123.93-68.385.149-123.781 55.546-123.93 123.916v.014zm879.59 492.046a20.418 20.418 0 01-14.16 6.039h-.018a20.957 20.957 0 01-14.181-6.041l.002.002a20.148 20.148 0 01-5.776-14.149v-.031.002a19.636 19.636 0 015.776-13.916 19.9 19.9 0 0114.172-6.039h.107a19.377 19.377 0 0114.071 6.031l.008.008a19.63 19.63 0 015.776 13.915v.03a20.15 20.15 0 01-5.78 14.153l.003-.003zM597.333 77.785c-3.587 3.718-8.613 6.026-14.178 6.026s-10.591-2.309-14.173-6.02l-.006-.006c-3.574-3.605-5.782-8.568-5.782-14.047s2.208-10.442 5.783-14.049l-.001.001c3.587-3.718 8.613-6.026 14.178-6.026s10.591 2.309 14.173 6.02l.006.006a20.148 20.148 0 015.776 14.149v.031-.002a19.636 19.636 0 01-5.776 13.916zM452.398 351.902c-42.053 0-76.143-34.091-76.143-76.144s34.091-76.144 76.144-76.144c42.053 0 76.144 34.091 76.144 76.144v.277-.014c0 41.908-33.973 75.881-75.881 75.881h-.277.014zm0-111.853c-19.866 0-35.971 16.105-35.971 35.971s16.105 35.971 35.971 35.971c19.866 0 35.971-16.105 35.971-35.971 0-19.866-16.105-35.971-35.971-35.971zm186.683 111.853c-42.053 0-76.143-34.091-76.143-76.144s34.091-76.144 76.144-76.144c42.053 0 76.144 34.091 76.144 76.144v.277-.014c0 41.908-33.973 75.881-75.881 75.881h-.277.014zm0-111.853c-19.866 0-35.971 16.105-35.971 35.971s16.105 35.971 35.971 35.971c19.866 0 35.971-16.105 35.971-35.971 0-19.866-16.105-35.971-35.971-35.971zm186.683 111.853c-42.053 0-76.143-34.091-76.143-76.144s34.091-76.144 76.144-76.144c42.053 0 76.144 34.091 76.144 76.144v.277-.014c0 41.908-33.973 75.881-75.881 75.881h-.277.014zm0-111.853c-19.866 0-35.971 16.105-35.971 35.971s16.105 35.971 35.971 35.971c19.866 0 35.971-16.105 35.971-35.971 0-19.866-16.105-35.971-35.971-35.971zM265.715 560.115c-42.053 0-76.144-34.091-76.144-76.144s34.091-76.144 76.144-76.144c42.053 0 76.144 34.091 76.144 76.144 0 42.053-34.091 76.144-76.144 76.144zm0-112.115c-19.866 0-35.971 16.105-35.971 35.971s16.105 35.971 35.971 35.971c19.866 0 35.971-16.105 35.971-35.971-.148-19.807-16.165-35.824-35.957-35.971h-.014zm373.366 112.115c-42.053 0-76.144-34.091-76.144-76.144s34.091-76.144 76.144-76.144c42.053 0 76.144 34.091 76.144 76.144 0 42.053-34.091 76.144-76.144 76.144zm0-112.115c-19.866 0-35.971 16.105-35.971 35.971s16.105 35.971 35.971 35.971c19.866 0 35.971-16.105 35.971-35.971-.148-19.807-16.165-35.824-35.957-35.971h-.014zm186.683 112.115c-42.053 0-76.144-34.091-76.144-76.144s34.091-76.144 76.144-76.144c42.053 0 76.144 34.091 76.144 76.144 0 42.053-34.091 76.144-76.144 76.144zm0-112.115c-19.866 0-35.971 16.105-35.971 35.971s16.105 35.971 35.971 35.971c19.866 0 35.971-16.105 35.971-35.971-.148-19.807-16.165-35.824-35.957-35.971h-.014zM452.398 560.115c-42.053 0-76.144-34.091-76.144-76.144s34.091-76.144 76.144-76.144c42.053 0 76.144 34.091 76.144 76.144 0 42.053-34.091 76.144-76.144 76.144zm0-112.115c-19.866 0-35.971 16.105-35.971 35.971s16.105 35.971 35.971 35.971c19.866 0 35.971-16.105 35.971-35.971-.148-19.807-16.165-35.824-35.957-35.971h-.014zM252.324 256.853c-3.674 3.529-8.672 5.702-14.178 5.702s-10.505-2.173-14.185-5.708l.007.007-65.116-65.378-22.318 22.318a19.898 19.898 0 01-14.178 5.912c-11.023 0-19.959-8.936-19.959-19.959a19.897 19.897 0 015.782-14.049l36.495-36.495a20.148 20.148 0 0114.149-5.776h.031-.002a20.68 20.68 0 0114.185 5.783l78.762 78.762a20.425 20.425 0 016.225 14.705 20.408 20.408 0 01-5.707 14.184l.007-.007z"/><glyph unicode="" glyph-name="car" d="M1016.728 895.668c-3.403 6.243-7.91 11.464-13.308 15.577l-.118.086a52.753 52.753 0 01-17.805 9.136l-.376.094-133.419 36.362c-6.772 1.967-14.551 3.099-22.594 3.099-15.815 0-30.608-4.375-43.235-11.981l.378.211c-19.724-11.875-34.213-30.739-40.139-53.089l-.139-.615-18.74-68.528-349.631 96.219c-1.395.426-2.998.671-4.659.671-3.134 0-6.064-.874-8.56-2.391l.073.041c-3.908-2.428-6.744-6.268-7.808-10.791l-.023-.118-67.129-257.329-83.911 22.936c-1.009.205-2.169.323-3.356.323s-2.347-.117-3.469-.341l.112.019a16.205 16.205 0 01-6.222-2.277l.068.04a17.195 17.195 0 01-5.281-4.708l-.033-.047a15.252 15.252 0 01-2.779-6.053l-.018-.101L81.955 270.806l-16.782 4.755c-3.028.599-6.508.942-10.069.942s-7.042-.343-10.411-.998l.342.055c-7.138-1.162-13.538-3.512-19.287-6.856l.267.143c-6.038-3.679-11.137-8.244-15.29-13.58l-.094-.126c-3.917-5.255-6.987-11.41-8.856-18.067l-.094-.394c-.665-3.111-1.045-6.686-1.045-10.349s.381-7.238 1.105-10.686l-.059.337c.888-7.312 3.166-13.936 6.567-19.831l-.134.252c3.403-6.243 7.91-11.464 13.308-15.577l.118-.086c5.092-3.96 11.047-7.111 17.505-9.124l.396-.106L449.769 59.628c3.044-24.418 11.708-46.35 24.653-65.1l-.318.488c13.133-18.872 30.339-34.019 50.414-44.39l.772-.363c17.993-9.394 39.297-14.906 61.889-14.906 25.451 0 49.267 6.994 69.634 19.165l-.621-.344c19.98 12.008 36.277 28.216 48.04 47.494l.349.615c13.141 21.205 20.928 46.924 20.928 74.462 0 45.786-21.529 86.544-55.016 112.703l-.316.238 171.459 660.104 116.637-31.886c4.509-1.533 9.703-2.418 15.104-2.418s10.595.885 15.445 2.517l-.341-.1c9.996 3.465 18.299 9.69 24.237 17.762l.097.139c6.015 7.695 9.899 17.318 10.62 27.812l.009.159c.088 1.146.138 2.481.138 3.828 0 9.593-2.542 18.592-6.988 26.361l.137-.26zM464.031 568.413l-31.886-121.951-19.859 23.216a23.327 23.327 0 01-5.752 4.415l-.122.061c-2.068.828-4.462 1.335-6.967 1.398l-.026.001a18.005 18.005 0 01-5.697-.014l.103.014-27.97-9.79 31.886 121.672zm71.604 273.272l33.285-8.951-20.418-78.317-3.636 6.154c-2.252 3.989-5.878 6.979-10.222 8.356l-.127.035c-1.051.203-2.26.319-3.496.319s-2.445-.116-3.617-.338l.12.019a16.205 16.205 0 01-6.222-2.277l.068.04-6.433-2.517zm-150.202 41.956l118.036-32.166-32.446-119.714a17.228 17.228 0 01-.607-4.584c0-5.617 2.629-10.621 6.723-13.848l.038-.029c2.658-1.849 5.955-2.955 9.51-2.955s6.852 1.105 9.565 2.991l-.055-.036 27.97 16.223 15.943-27.97c1.389-2.735 3.497-4.933 6.078-6.394l.075-.039c2.461-1.564 5.455-2.499 8.666-2.517h2.243c3.562.562 6.703 2.054 9.258 4.218l-.027-.023a17.635 17.635 0 015.286 8.547l.028.123 31.327 119.714 116.078-33.005-62.654-239.148-333.688 91.464zM213.695 637.78l149.922-41.396-40.278-153.558a18.543 18.543 0 01-.477-4.232c0-5.223 2.105-9.954 5.513-13.391l-.001.001a17.861 17.861 0 017.988-4.449l.124-.027c1.387-.331 2.979-.521 4.615-.521s3.228.19 4.755.549l-.14-.028 48.109 16.782 33.565-39.159c3.244-3.663 7.959-5.96 13.211-5.96 1.265 0 2.498.133 3.687.386l-.115-.021c6.234 1.823 11.043 6.633 12.833 12.734l.033.132 40.278 153.558 150.202-41.117-78.597-299.844c-19.51-2.704-37.082-9.118-52.64-18.526l.615.345c-16.504-9.623-30.294-22.075-41.135-36.828l-.261-.372-360.26 97.897zM35.243 228.851a15.388 15.388 0 002.824 6.191l-.027-.037a16.342 16.342 0 005.227 4.433l.087.043a12.458 12.458 0 006.106 2.234l.048.003c1.009.202 2.169.317 3.356.317s2.347-.116 3.47-.336l-.113.019 401.936-110.204q-3.356-8.391-5.874-16.782c-1.289-4.866-2.371-10.761-3.027-16.784l-.049-.558L47.551 207.314a15.388 15.388 0 00-6.191 2.824l.037-.027a16.342 16.342 0 00-4.433 5.227l-.043.087a17.33 17.33 0 00-2.226 6.338l-.011.095a18.692 18.692 0 00-.102 1.983c0 1.782.241 3.507.693 5.145l-.032-.136zM686.116 50.399c-5.532-20.9-16.706-38.693-31.787-52.217l-.099-.088c-17.954-16.339-41.925-26.345-68.232-26.345-16.741 0-32.535 4.051-46.456 11.227l.569-.267c-18.632 9.518-33.623 23.88-43.645 41.444l-.269.511c-8.853 15.322-14.076 33.703-14.076 53.304 0 24.284 8.017 46.695 21.549 64.731l-.201-.279c19.024 25.287 48.975 41.468 82.706 41.468 9.379 0 18.465-1.251 27.102-3.595l-.723.167c27.163-7.831 49.291-25.588 62.663-48.993l.271-.515c8.827-15.399 14.032-33.852 14.032-53.52 0-9.605-1.241-18.921-3.573-27.794l.17.76zm302.361 814.222c-.64-2.34-1.598-4.389-2.843-6.226l.046.073a21.708 21.708 0 00-5.228-4.703l-.086-.052a22.643 22.643 0 00-6.001-2.21l-.153-.028c-1.009-.205-2.169-.323-3.356-.323s-2.347.117-3.469.341l.112-.019-116.917 32.725c-2.639.726-5.668 1.143-8.796 1.143-16.13 0-29.668-11.101-33.39-26.08l-.05-.237-170.34-650.314c-9.636 4.168-20.844 7.393-32.535 9.138l-.75.092 174.536 667.376c2.015 7.146 5.081 13.387 9.071 18.916l-.12-.175c4.163 5.546 9.28 10.128 15.144 13.575l.24.131c5.439 3.429 11.879 5.809 18.787 6.689l.233.024c2.028.298 4.37.468 6.751.468 4.768 0 9.376-.682 13.733-1.953l-.346.086 133.419-36.921c4.57-1.224 8.311-4.145 10.584-8.029l.044-.082c1.409-2.568 2.238-5.628 2.238-8.881 0-1.614-.204-3.181-.588-4.675l.028.13z"/><glyph unicode="" glyph-name="clock" d="M1003.776 467.2l-.258.002c-10.797 0-19.567-8.681-19.71-19.444v-.014C983.669 320 930.421 204.72 844.958 122.775l-.158-.151C758.62 39.697 641.275-11.381 512-11.381S265.38 39.697 179.046 122.771l.154-.148C93.931 204.963 40.985 320.298 40.985 447.999s52.946 243.036 138.084 325.25l.131.126c86.435 83.273 204.179 134.57 333.904 134.57 75.44 0 146.829-17.348 210.394-48.273l-2.857 1.255c2.375-1.076 5.149-1.703 8.07-1.703 7.523 0 14.074 4.16 17.478 10.305l.052.102c1.194 2.43 1.892 5.288 1.892 8.31 0 7.567-4.378 14.112-10.739 17.24l-.113.05c-66.142 32.588-143.983 51.65-226.276 51.65-140.937 0-268.816-55.911-362.665-146.762l.141.136C55.911 710.993-1.578 585.889-1.578 447.359S55.911 183.725 148.333 94.605l.149-.142C242.104 4.001 369.775-51.741 510.466-51.741S778.828 4.002 872.599 94.607l-.149-.143c93.235 89.129 151.277 214.399 151.552 353.228v.052c-.141 10.779-8.911 19.463-19.71 19.463-.181 0-.361-.002-.54-.007l.026.001zM806.912 855.808c-3.206 2.234-7.184 3.569-11.473 3.569-6.743 0-12.716-3.3-16.391-8.374l-.041-.059c-2.208-3.085-3.53-6.936-3.53-11.094 0-6.677 3.408-12.557 8.579-15.997l.071-.044a18.296 18.296 0 0111.282-3.584h-.018l.257-.002c6.601 0 12.453 3.203 16.088 8.139l.039.055a18.813 18.813 0 013.85 11.448c0 6.663-3.44 12.522-8.64 15.9l-.074.045zm96.512-388.352l-.258.002c-10.797 0-19.567-8.681-19.71-19.444v-.016c0-10.887 8.825-19.712 19.712-19.712l.27.002h-.014.015c10.899 0 19.785 8.622 20.208 19.418l.001.038V448c-.141 10.779-8.911 19.463-19.71 19.463-.181 0-.361-.002-.54-.007l.026.001zm-4.096-79.36a19.445 19.445 0 01-4.328.475c-9.472 0-17.404-6.595-19.453-15.444l-.026-.135C836.239 207.06 689.358 85.498 514.086 85.498c-.733 0-1.465.002-2.197.006l.113-.001a350.561 350.561 0 00-4.899-.033c-201.24 0-364.713 161.7-367.578 362.259l-.003.27c.484 132.992 72.865 248.969 180.281 311.138l1.735.926a18.605 18.605 0 01-.237-3.006c0-7.72 4.556-14.376 11.126-17.425l.119-.049c2.434-1.292 5.322-2.051 8.387-2.051.111 0 .223.001.334.003h-.017c.107-.002.234-.003.36-.003 7.618 0 14.226 4.321 17.508 10.646l.052.11 22.272 43.776c1.142 2.402 1.808 5.219 1.808 8.191 0 7.579-4.333 14.146-10.658 17.358l-.111.051-45.056 22.016c-2.347 1.031-5.082 1.632-7.958 1.632-7.537 0-14.111-4.123-17.589-10.236l-.052-.1c-1.194-2.43-1.892-5.288-1.892-8.31 0-7.567 4.378-14.112 10.739-17.24l.113-.05 6.4-3.072c-129.737-67.48-216.961-200.632-217.6-354.217V448c3.157-222.522 184.283-401.697 407.258-401.697 1.814 0 3.625.012 5.433.035l-.275-.003h.009c99.172 0 190.323 34.343 262.208 91.785l-.841-.649c70.315 56.459 120.884 134.948 141.309 224.889l.515 2.695c.245 1.157.385 2.487.385 3.849 0 9.615-6.975 17.601-16.141 19.175l-.115.016zM512 510.208c-.166.002-.361.002-.557.002-27.732 0-51.344-17.638-60.23-42.308l-.14-.446h-165.12c-10.745 0-19.456-8.711-19.456-19.456s8.711-19.456 19.456-19.456h165.12c6.719-19.05 21.693-33.687 40.509-39.809l.451-.127V175.872c0-11.028 8.94-19.968 19.968-19.968s19.968 8.94 19.968 19.968v212.736c25.564 8.116 43.763 31.638 43.763 59.411 0 34.357-27.851 62.208-62.208 62.208-.536 0-1.07-.007-1.602-.02l.079.002zm0-85.76c-12.785.287-23.04 10.719-23.04 23.546 0 13.007 10.545 23.552 23.552 23.552 13.005 0 23.549-10.541 23.552-23.546-.144-13.039-10.747-23.553-23.807-23.553l-.271.002H512zm91.904 158.464h-38.912c27.648 27.136 58.88 66.56 58.88 105.984.046.888.072 1.928.072 2.975 0 34.074-27.622 61.696-61.696 61.696-1.557 0-3.1-.058-4.628-.171l.204.012c-.231.003-.503.005-.776.005-35.836 0-64.954-28.763-65.527-64.463l-.001-.054c1.181-10.149 9.727-17.952 20.096-17.952s18.915 7.803 20.087 17.858l.009.094c0 14.138 11.462 25.6 25.6 25.6 25.6 0 25.6-19.2 25.6-25.6 0-40.448-60.672-92.928-84.224-109.824-4.932-3.575-8.103-9.317-8.103-15.8 0-2.13.342-4.179.974-6.097l-.039.137c2.751-7.956 10.177-13.568 18.915-13.568h92.445a19.197 19.197 0 012.243-.128c10.887 0 19.712 8.825 19.712 19.712s-8.825 19.712-19.712 19.712c-.79 0-1.57-.047-2.336-.137l.093.009zM811.52 668.16h-3.072v65.792c0 11.028-8.94 19.968-19.968 19.968s-19.968-8.94-19.968-19.968V668.16h-54.016v65.792c0 11.028-8.94 19.968-19.968 19.968s-19.968-8.94-19.968-19.968v-85.504c.143-10.777 8.913-19.458 19.71-19.458l.271.002h73.458V563.2c0-11.028 8.94-19.968 19.968-19.968s19.968 8.94 19.968 19.968v65.792h3.072a19.197 19.197 0 012.243-.128c10.887 0 19.712 8.825 19.712 19.712s-8.825 19.712-19.712 19.712c-.79 0-1.57-.047-2.336-.137l.093.009zm141.312-.512a59.212 59.212 0 01-23.939-4.755l.387.147v70.912c0 11.028-8.94 19.968-19.968 19.968s-19.968-8.94-19.968-19.968V563.2c0-11.028 8.94-19.968 19.968-19.968s19.968 8.94 19.968 19.968v42.496c1.283 11.909 11.28 21.1 23.424 21.1s22.141-9.191 23.415-20.996l.009-.104V563.2c0-11.028 8.94-19.968 19.968-19.968s19.968 8.94 19.968 19.968v42.496c-.432 34.308-28.345 61.954-62.715 61.954l-.544-.002h.028z"/><glyph unicode="" glyph-name="lamp" d="M576.066-64H447.935c-36.01 2.591-64.243 32.442-64.243 68.887 0 2.742.16 5.447.471 8.105l-.031-.323v89.797c-1.59 44.849-22.853 84.43-55.375 110.578l-.288.224c-70.262 54.54-115.045 139.012-115.045 233.944 0 1.754.015 3.505.046 5.252l-.004-.263c4.808 160.586 133.748 289.526 293.884 294.324l.451.011c1.187.017 2.588.027 3.991.027 81.467 0 155.326-32.575 209.262-85.41l-.051.05c55.023-54.423 89.261-129.763 89.796-213.101l.001-.102c.014-1.044.021-2.276.021-3.51 0-91.927-43.222-173.758-110.452-226.281l-.634-.477c-35.533-28.357-58.427-71.255-59.598-119.537l-.004-.192V.067c-.857-35.032-29.033-63.208-63.985-64.064l-.081-.002zM512 704c-138.517-3.455-250.197-113.67-255.982-251.267l-.018-.532c-.04-1.672-.063-3.641-.063-5.616 0-80.892 38.265-152.848 97.681-198.753l.581-.431c43.629-33.875 71.656-86.05 72.466-144.803l.001-.132V12.669c0-8.402 0-34.133 21.268-34.133h128.131c.327-.019.71-.03 1.095-.03 11.166 0 20.217 9.052 20.217 20.217 0 .472-.016.941-.048 1.405l.003-.063v97.936c2.483 61.846 31.679 116.407 76.293 152.778l.376.297c57.497 46.045 94.002 116.239 94.002 194.96 0 .506-.002 1.011-.005 1.516v-.078c.002.327.002.714.002 1.101 0 71.529-29.336 136.206-76.633 182.656l-.038.038c-45.581 44.967-108.224 72.738-177.354 72.738-.695 0-1.39-.003-2.084-.008l.106.001zM618.601 63.869H405.399c-10.825 1.236-19.156 10.345-19.156 21.399s8.331 20.163 19.057 21.39l.099.009h213.202c.712.084 1.538.131 2.374.131 11.891 0 21.53-9.639 21.53-21.53s-9.639-21.53-21.53-21.53c-.836 0-1.662.048-2.473.141l.099-.009zM512 831.869c-.327-.019-.71-.03-1.095-.03-11.166 0-20.217 9.052-20.217 20.217 0 .472.016.941.048 1.405l-.003-.063v85.333c0 11.746 9.522 21.268 21.268 21.268s21.268-9.522 21.268-21.268v-85.333c.028-.402.045-.87.045-1.342 0-11.166-9.052-20.217-20.217-20.217-.385 0-.768.011-1.148.032l.053-.002zm285.932-119.467a23.985 23.985 0 00-2.701-.148 24.568 24.568 0 00-14.438 4.662l.072-.05c-3.992 3.704-6.482 8.979-6.482 14.835s2.49 11.131 6.469 14.823l.013.012 59.339 59.865c3.812 3.869 9.109 6.266 14.966 6.266s11.154-2.397 14.964-6.264l.003-.003c4.004-3.748 6.5-9.066 6.5-14.966s-2.495-11.218-6.488-14.956l-.011-.011-59.339-59.602c-3.718-2.039-8.034-3.592-12.602-4.424l-.263-.04zm204.8-285.67h-85.333c-11.746 0-21.268 9.522-21.268 21.268s9.522 21.268 21.268 21.268h85.333c11.746 0 21.268-9.522 21.268-21.268s-9.522-21.268-21.268-21.268zM857.534 81.198a25.542 25.542 0 00-2.62-.131 26.13 26.13 0 00-14.543 4.392l.096-.06-59.602 60.652c-4.004 3.748-6.5 9.066-6.5 14.966s2.495 11.218 6.488 14.956l.011.011c3.812 3.869 9.109 6.266 14.966 6.266s11.154-2.397 14.964-6.264l59.605-59.605c4.004-3.748 6.5-9.066 6.5-14.966s-2.495-11.218-6.488-14.956l-.011-.011c0-5.251-3.938-5.251-12.866-5.251zm-691.068 0a25.542 25.542 0 00-2.62-.131 26.13 26.13 0 00-14.543 4.392l.096-.06c-4.004 3.748-6.5 9.066-6.5 14.966s2.495 11.218 6.488 14.956l.011.011 60.652 59.602c2.956 1.655 6.486 2.63 10.244 2.63 11.746 0 21.268-9.522 21.268-21.268 0-3.758-.975-7.288-2.685-10.352l.055.108L179.067 85.4a15.437 15.437 0 00-10.727-4.315c-.661 0-1.313.041-1.952.122l.076-.008zm-59.865 345.534H21.268C9.522 426.732 0 436.254 0 448s9.522 21.268 21.268 21.268h85.333c11.746 0 21.268-9.522 21.268-21.268s-9.522-21.268-21.268-21.268zm119.467 285.933a25.04 25.04 0 00-1.686-.054 26.141 26.141 0 00-14.429 4.316l.099-.061-60.652 64.066a20.912 20.912 0 00-5.439 14.104c0 11.601 9.404 21.005 21.005 21.005a20.929 20.929 0 0014.121-5.455l-.017.015 59.865-60.652c3.869-3.812 6.266-9.109 6.266-14.966s-2.397-11.154-6.264-14.964l-.003-.003c-4.201-3.151-8.665-7.352-12.866-7.352zm456.599-285.933a19.01 19.01 0 00-1.359-.046c-11.021 0-19.955 8.934-19.955 19.955 0 .478.017.953.05 1.422l-.004-.063c-1.023 82.096-67.303 148.376-149.301 149.398l-.097.001c-11.746 0-21.268 9.522-21.268 21.268s9.522 21.268 21.268 21.268l.789.002c105.567 0 191.147-85.579 191.147-191.147l-.002-.832v.043c.03-.407.046-.881.046-1.359 0-11.021-8.934-19.955-19.955-19.955-.478 0-.953.017-1.422.05l.063-.004z"/><glyph unicode="" glyph-name="meet" d="M884.791 386.56l-.515.002c-9.123 0-17.794-1.936-25.625-5.42l.402.16c-5.43 7.717-12.732 13.775-21.26 17.582l-.327.13c-5.933 2.638-12.854 4.174-20.135 4.174-22.442 0-41.474-14.596-48.122-34.813l-.102-.358c-30.488-6.939-52.9-33.815-52.9-65.925 0-19.813 8.533-37.634 22.125-49.987l.055-.049c11.923-10.65 27.743-17.159 45.083-17.159h.03-.002a46.707 46.707 0 019.048.015l-.192-.015c7.168-12.185 17.691-21.728 30.299-27.503l.421-.173c8.208-3.805 17.814-6.024 27.939-6.024 19.537 0 37.144 8.263 49.517 21.484l.035.038a67.241 67.241 0 0117.404 37.592l.032.323c12.448 7.64 22.056 18.855 27.513 32.206l.163.451c3.361 7.663 5.317 16.595 5.317 25.983 0 6.114-.83 12.035-2.382 17.655l.11-.465c-7.75 29.047-33.824 50.093-64.813 50.093h-.237.012zm11.071-99.079c-3.584-1.258-6.531-3.579-8.541-6.581l-.038-.061a15.64 15.64 0 01-2.817-8.996c0-.438.018-.871.053-1.3l-.004.056a4.779 4.779 0 01.005-1.969l-.006.031a35.014 35.014 0 00-8.344-22.468l.042.05c-5.313-5.922-12.622-9.96-20.86-11.052l-.173-.019a32.412 32.412 0 00-4.491-.302 33.334 33.334 0 00-18.601 5.637l.121-.076c-6.706 4.537-11.633 11.263-13.783 19.136l-.055.237c-.645 2.462-1.794 4.599-3.338 6.386l.017-.02a13.904 13.904 0 01-5.444 4.117l-.091.034c-1.929 1.005-4.18 1.694-6.565 1.931l-.077.006c-1.081.26-2.322.408-3.598.408s-2.517-.149-3.707-.43l.109.022c-3.716-1.433-8.016-2.264-12.51-2.264-.662 0-1.319.018-1.972.054l.091-.004c-5.301.331-10.205 1.726-14.601 3.972l.21-.097c-4.329 2.612-7.994 5.837-11.007 9.605l-.063.082c-2.708 3.857-4.729 8.408-5.769 13.321l-.043.24c-.335 1.8-.526 3.871-.526 5.987a34.179 34.179 0 007.77 21.749l-.048-.06a34.245 34.245 0 0011.422 9.044l.201.089c4.236 1.903 9.18 3.022 14.383 3.044h.008a17.106 17.106 0 0111.901 4.983l-.001-.001a16.56 16.56 0 014.982 11.859v.044-.002a17.106 17.106 0 004.983 11.901l-.001-.001a16.012 16.012 0 0011.915 4.981h-.014a17.1 17.1 0 0011.361-4.441l-.014.013c2.987-2.704 4.948-6.493 5.255-10.741l.003-.052a16.293 16.293 0 013.349-8.617l-.028.038a16.106 16.106 0 017.36-5.225l.113-.034c1.369-.393 2.941-.619 4.566-.619s3.197.226 4.687.648l-.121-.029c3.252.555 6.089 2.035 8.309 4.157l-.006-.006a32.3 32.3 0 0012.501 7.136l.229.06c3.146 1.059 6.768 1.671 10.534 1.671a34.35 34.35 0 004.586-.306l-.175.019c5.218-.865 9.88-2.709 13.984-5.346l-.146.088c4.097-2.922 7.509-6.51 10.148-10.64l.092-.153c2.311-4.074 3.887-8.86 4.415-13.958l.013-.157c.138-1.075.217-2.318.217-3.58 0-3.996-.792-7.807-2.226-11.285l.072.197c-1.799-4.884-4.537-9.045-8.02-12.448l-.006-.006a32.657 32.657 0 00-12.225-7.679l-.229-.07zm-213.38-153.877h-.001a50.423 50.423 0 01-30.298-10.058l.133.095c-8.695-6.317-15.136-15.269-18.18-25.673l-.086-.342c-21.176-6.274-36.362-25.555-36.362-48.383A50.144 50.144 0 01607.85 18.9l-.092.127c6.285-8.685 15.114-15.186 25.386-18.446l.353-.097c2.415-11.476 7.561-21.491 14.733-29.689l-.065.076c12.452-14.348 30.717-23.369 51.088-23.369 3.359 0 6.66.245 9.888.719l-.366-.044c11.679 1.737 22.087 6.148 30.918 12.592l-.198-.137c8.971 6.78 16.11 15.515 20.857 25.598l.177.417c3.908 8.419 6.188 18.274 6.188 28.661 0 1.308-.036 2.608-.108 3.899l.008-.179c-.797 11.791-4.505 22.573-10.403 31.823l.163-.273c-5.709 9.778-13.45 17.784-22.691 23.635l-.28.166a45.648 45.648 0 01-.015 8.766l.015-.186c-.113 14.039-5.798 26.728-14.95 35.983l.005-.005c-9.148 9.067-21.743 14.669-35.647 14.669l-.349-.001h.018zm50.923-118.175v-.014c0-18.8-15.241-34.041-34.041-34.041-9.404 0-17.917 3.813-24.078 9.977a34.469 34.469 0 00-9.686 23.79v.011a17.936 17.936 0 01-4.988 12.184l.006-.007a17.37 17.37 0 01-11.9 4.705h-.001a17.106 17.106 0 00-11.901 4.983l.001-.001a16.56 16.56 0 00-4.982 11.859v.044-.002a15.73 15.73 0 004.973 11.892l.008.008a16.012 16.012 0 0011.915 4.981h-.014c9.324 0 16.882 7.558 16.882 16.882 0 9.324 7.558 16.882 16.882 16.882h.042c4.644 0 8.843-1.906 11.856-4.979l.003-.003a17.104 17.104 0 004.982-11.89v-.01a18.463 18.463 0 00-2.813-9.21l.045.077a14.275 14.275 0 01-2.765-7.424l-.003-.049c-.267-1.206-.42-2.592-.42-4.013s.153-2.807.444-4.141l-.023.128c1.134-2.514 2.724-4.636 4.683-6.347l.022-.018a15.973 15.973 0 017.089-3.578l.106-.02c7.697-1.729 14.204-5.982 18.765-11.828l.055-.073a33.611 33.611 0 008.851-20.657l.005-.1zM631.836 369.678c-10.331-.146-19.89-3.33-27.858-8.695l.183.116c-8.248-5.543-14.642-13.274-18.421-22.364l-.122-.33c-2.453-5.549-3.881-12.021-3.881-18.825 0-3.627.406-7.158 1.174-10.553l-.061.319c2.005-10.261 6.918-19.145 13.835-26.012l.003-.003c6.775-7.387 15.645-12.751 25.668-15.152l.347-.07c2.968-.589 6.381-.925 9.873-.925a52.991 52.991 0 0119.821 3.82l-.357-.127c9.392 4.076 17.101 10.54 22.578 18.637l.116.183c5.292 7.77 8.485 17.341 8.579 27.652v.024c-.113 14.039-5.798 26.728-14.95 35.983l.005-.005c-9.126 9.885-22.081 16.117-36.494 16.328h-.038zm0-67.529a16.528 16.528 0 00-9.46 3.079l.051-.034c-2.79 1.739-4.918 4.314-6.056 7.371l-.033.101c-.458 1.449-.722 3.115-.722 4.843s.264 3.394.754 4.961l-.032-.118c1.498 6.646 6.638 11.786 13.168 13.262l.117.022c1.453.397 3.122.624 4.843.624s3.39-.228 4.977-.655l-.134.031c3.114-1.378 5.658-3.566 7.433-6.3l.04-.066a16.47 16.47 0 003.044-9.4v-.009c0-9.324-7.558-16.882-16.882-16.882zm252.955-185.427c-.01 20.973-12.766 38.964-30.941 46.647l-.332.125c-5.673 2.403-12.269 3.8-19.192 3.8-3.591 0-7.095-.376-10.473-1.09l.329.058c-19.963-4.151-35.425-19.613-39.519-39.247l-.057-.329c-.649-3.041-1.021-6.536-1.021-10.117a50.491 50.491 0 013.912-19.553l-.124.334c7.824-18.485 25.811-31.218 46.772-31.218 27.952 0 50.615 22.644 50.646 50.588v.003zm-67.528 0a18.461 18.461 0 002.813 9.487l-.045-.078c3.308 4.522 8.596 7.427 14.562 7.427 1.015 0 2.01-.084 2.979-.246l-.105.014a14.692 14.692 0 008.567-4.691l.012-.014a16.012 16.012 0 005.02-11.66c0-2.394-.524-4.665-1.463-6.705l.041.1c-.999-3.366-2.935-6.198-5.504-8.278l-.031-.024c-2.677-1.68-5.918-2.701-9.392-2.767h-.018c-9.324 0-16.882 7.558-16.882 16.882zm-222.236 100.74l8.303-32.657c39.211 9.256 73.353 21.223 105.772 36.277l-3.372-1.405-15.222 30.443c-27.01-12.64-58.832-23.839-91.88-31.913l-3.602-.744zm92.714-66.145c34.562 11.085 63.143 22.527 90.767 35.654l-4.419-1.89-14.945 30.166c-22.306-10.924-49.774-22.076-78.034-31.492l-4.993-1.442zm-123.434-.831h33.764v-33.764h-33.764zM800.381 32.311h33.764V-1.177h-33.764zm135.057 152.77h33.764v-33.764h-33.764zM125.924 487.853h33.764v.001c0 27.874 22.518 50.489 50.355 50.646h.015v34.041c-27.852.157-50.37 22.772-50.37 50.646v.001h-33.764c-.156-27.908-22.738-50.49-50.632-50.646h-.015v-33.488c27.908-.156 50.49-22.738 50.646-50.632v-.015zm16.882 84.688c4.937-6.669 10.594-12.414 16.954-17.285l.205-.151c-6.636-4.855-12.303-10.523-17.007-16.942l-.152-.217c-5.173 6.663-11.202 12.341-17.995 16.984l-.271.175c6.999 4.992 13.017 10.746 18.124 17.249l.142.187zm353.972 252.402h-33.764l.001-.278c0-27.666-22.427-50.093-50.093-50.093l-.293.001h.015v-33.764h.126c13.932 0 26.528-5.719 35.568-14.937l.008-.008c9.066-9.148 14.668-21.743 14.668-35.646v-.059.003h33.764c.174 13.991 5.964 26.597 15.215 35.695l.007.007c9.049 9.226 21.644 14.945 35.576 14.945h.132-.007v33.764h-.056c-13.903 0-26.498 5.602-35.65 14.672l.004-.004c-9.209 9.135-14.984 21.722-15.221 35.657l-.001.045zm-16.882-84.688c-4.937 6.669-10.594 12.414-16.954 17.285l-.205.151c6.566 5.022 12.222 10.767 16.996 17.205l.163.231c5.024-6.666 10.769-12.412 17.216-17.277l.219-.159c-6.666-5.024-12.412-10.769-17.277-17.216l-.159-.219zM41.514-36.324a16.007 16.007 0 014.976-11.895l.006-.006a16.012 16.012 0 0111.915-4.981h404.604c40.683 0 67.529 50.646 67.529 83.027v255.446c.002.165.003.361.003.557 0 27.666-22.427 50.093-50.093 50.093-.196 0-.391-.001-.586-.003h-56.982l-27.676 58.119c-1.39 2.939-3.58 5.308-6.291 6.879l-.074.04c-2.524 1.556-5.581 2.481-8.854 2.491h-16.885v505.911c-.505 14.295-7.027 26.973-17.095 35.648l-.064.054c-9.092 9.234-21.729 14.955-35.702 14.955s-26.609-5.721-35.695-14.948l-.006-.006c-9.223-8.963-14.946-21.485-14.946-35.344l.001-.377v.019-505.911h-15.775a17.088 17.088 0 01-8.654-2.533l.074.043a18.688 18.688 0 01-6.04-6.815l-.049-.103-27.676-58.119h-58.672c-.165.002-.361.003-.557.003-27.666 0-50.093-22.427-50.093-50.093 0-.196.001-.391.003-.586v.03V32.315c0-20.757-17.436-50.37-33.764-50.37a17.106 17.106 0 01-11.901-4.983l.001.001a16.559 16.559 0 01-5.038-11.914c0-.482.021-.96.061-1.432l-.004.061zm185.427 67.252c0-20.757-17.436-50.37-33.764-50.37h-15.775c9.364 14.243 15.164 31.571 15.771 50.212l.004.158v102.677h33.764zm67.528 0c0-20.757-17.436-50.37-33.764-50.37H244.93c9.364 14.243 15.164 31.571 15.771 50.212l.004.158v102.677h33.764zm67.529 0c0-20.757-17.436-50.37-33.764-50.37h-15.775c9.364 14.243 15.164 31.571 15.771 50.212l.004.158v102.677h33.764zm67.528 0c0-20.757-17.436-50.37-33.764-50.37h-15.775c9.24 14.284 15.017 31.581 15.769 50.172l.006.198v102.677h33.211zm67.252 0c0-20.757-17.436-50.37-33.764-50.37h-15.775c9.364 14.243 15.164 31.571 15.771 50.212l.004.158v102.677h33.764zM294.469 909.354l-.002.275c0 4.571 1.911 8.696 4.978 11.62l.006.006c3.02 3.101 7.236 5.025 11.901 5.025s8.881-1.924 11.897-5.021l.004-.004a16.012 16.012 0 004.981-11.915v.014-286.72H294.47zm0-320.485h33.764v-67.252h-33.764zm0-101.016h33.764v-84.411h-33.764zm-40.13-118.175h114.024l16.882-33.764H237.457zm-128.415-84.411a16.554 16.554 0 004.979 12.175l.003.003a16.546 16.546 0 0011.917 4.705h337.073a16.554 16.554 0 0011.905-4.708l-.004.003a16.557 16.557 0 004.982-12.194v.017V167.37H125.925zm0-252.956v101.293h33.764V32.311c0-20.757-17.436-50.37-33.764-50.37h-15.775c9.24 14.284 15.017 31.581 15.769 50.172l.006.198zm67.252 202.586h33.764v33.211h-50.37a17.936 17.936 0 01-12.184-4.988l.007.006a17.37 17.37 0 01-4.705-11.9v-50.647h33.488zm67.529 33.211h33.764v-33.211h-33.764z"/><glyph unicode="" glyph-name="minicar" d="M955.136 467.712h-40.448v283.392c-.142 11.112-9.112 20.082-20.21 20.224h-56.846c-11.169 0-20.224-9.055-20.224-20.224s9.055-20.224 20.224-20.224h36.608V407.04H787.2v102.4c0 11.169-9.055 20.224-20.224 20.224s-20.224-9.055-20.224-20.224v-102.4h-204.8l54.016 322.56h59.648c11.169 0 20.224 9.055 20.224 20.224s-9.055 20.224-20.224 20.224H518.144c-11.169 0-20.224-9.055-20.224-20.224s9.055-20.224 20.224-20.224h36.608l-53.76-322.56h-43.776c-37.661-.185-69.242-25.994-78.213-60.877l-.123-.563h-83.456v466.176a19.74 19.74 0 01.512 4.522c0 11.169-9.055 20.224-20.224 20.224s-20.224-9.055-20.224-20.224c0-1.603.187-3.163.539-4.659l-.027.137v-102.4H87.04c-11.169 0-20.224-9.055-20.224-20.224v-524.8H20.224C9.94 163.163 2.03 154.505 2.03 144s7.91-19.163 18.099-20.343l.095-.009h256.002c11.169 0 20.224 9.055 20.224 20.224l-.002.27v-.014V305.92h79.872V204.8c0-11.169 9.055-20.224 20.224-20.224h40.96v-10.24c0-61.502 49.858-111.36 111.36-111.36s111.36 49.858 111.36 111.36v10.24h153.6v-10.24a106.89 106.89 0 01-.128-5.338c0-61.502 49.858-111.36 111.36-111.36s111.36 49.858 111.36 111.36c0 1.877-.046 3.744-.138 5.599l.01-.261v212.48c-.146 44.709-36.423 80.896-81.152 80.896zM256 164.352H107.264V305.92H256zm0 181.248H107.264v142.336H256zm0 182.016H107.264v142.592H256zm293.376-424.96c-39.164 0-70.912 31.748-70.912 70.912s31.748 70.912 70.912 70.912 70.912-31.748 70.912-70.912c-.575-38.864-32.214-70.148-71.161-70.148-.273 0-.545.002-.817.005h.041zm376.32 0c-39.164 0-70.912 31.748-70.912 70.912s31.748 70.912 70.912 70.912 70.912-31.748 70.912-70.912c-.43-38.835-32.012-70.151-70.908-70.151a78.2 78.2 0 00-1.083.008l.054-.001zm70.912 156.672c-19.097 15.944-43.905 25.624-70.973 25.624-42.965 0-80.234-24.388-98.719-60.077l-.292-.619h-179.2c-18.755 36.374-56.059 60.816-99.072 60.816s-80.317-24.442-98.78-60.195l-.292-.621h-32.512v101.888c0 22.339 18.109 40.448 40.448 40.448h437.248c11.169 0 20.224 9.055 20.224 20.224v40.448h40.448c22.339 0 40.448-18.109 40.448-40.448z"/><glyph unicode="" glyph-name="police" d="M709.711 320.919h-92.685v35.184c49.819 32.384 83.49 85.99 88.182 147.697l.04.652c40.919 7.15 71.632 42.385 71.68 84.803v36.239c-.149 27.874-22.78 50.412-50.674 50.412h-20.481v21.53c20.637 15.106 34.216 38.801 35.439 65.716l.007.187 34.133 68.004a15.091 15.091 0 012.515 8.384c0 3.594-1.245 6.897-3.327 9.501l.023-.03-70.892 70.892a17.545 17.545 0 01-7.756 4.176l-.12.025L519.089 960c-.671.129-1.443.203-2.232.203s-1.561-.074-2.309-.216l.077.012c-.671.119-1.443.187-2.232.187s-1.561-.068-2.312-.199l.08.012L333.98 924.29c-2.982-.753-5.555-2.218-7.62-4.206l.005.005-71.155-70.892a15.17 15.17 0 01-4.228-10.53c0-2.478.592-4.818 1.642-6.886l-.04.087 34.133-68.004c.955-27.272 14.489-51.196 34.947-66.262l.237-.167V675.38h-19.955c-27.842 0-50.412-22.57-50.412-50.412v-35.446c.025-42.348 30.611-77.545 70.896-84.731l.521-.077c4.522-62.375 38.02-116.075 86.961-148.159l.735-.452v-35.971H319.8l-.788.002c-96.248 0-174.307-77.875-174.604-174.053V-49.295a14.662 14.662 0 014.46-10.499l.004-.003a14.145 14.145 0 0110.512-4.464h106.592c8.207.145 14.821 6.759 14.966 14.952v.014c0 8.266-6.701 14.966-14.966 14.966h-91.635v180.382c0 79.901 64.772 144.673 144.673 144.673h35.446l-30.72-123.405a14.123 14.123 0 01-.498-3.76c0-3.96 1.594-7.548 4.175-10.157l-.001.001a14.412 14.412 0 0110.685-4.726h2.968l98.462 19.692 41.485-44.373L433.492-33.54H332.667c-.079.002-.172.002-.265.002-8.121 0-14.704-6.583-14.704-14.704l.003-.279v.014c0-8.266 6.701-14.966 14.966-14.966h536.681c8.266 0 14.966 6.701 14.966 14.966v194.823c0 96.432-78.173 174.605-174.605 174.605zm-387.807 215.04c-23.827 6.867-40.96 28.476-40.96 54.086v35.449c.57 10.853 9.509 19.437 20.453 19.437.194 0 .387-.003.58-.008l-.028.001h20.48zm322.691-244.972l26.256-107.651-129.444 26.256 68.004 81.657zm-131.282-68.004l-72.73 88.484v29.67c21.799-9.292 47.158-14.696 73.778-14.704h.37c26.497 0 51.731 5.406 74.659 15.176l-1.245-.472v-29.67zm213.99 421.94c11.311 0 20.48-9.169 20.48-20.48v-35.449c0-25.61-17.133-47.218-40.563-53.987l-.397-.098v110.014zM309.826 784.607l-26.256 50.937 60.652 60.127 170.142 33.871 170.142-33.871 60.127-60.127-26.256-50.937-136.008 30.457v58.814c0 8.411-6.818 15.229-15.229 15.229H460.8c-8.266 0-14.966-6.701-14.966-14.966l.003-.276v.014-58.814zm242.346 74.306v-47.787L514.1 784.87l-38.334 26.256v47.787zM317.703 755.725L457.65 786.97l48.049-32.033a15.342 15.342 0 018.411-2.363h-.009l.144-.001c2.972 0 5.738.882 8.051 2.398l-.056-.034 48.049 32.033 140.997-31.245c-5.737-25.415-28.123-44.111-54.875-44.111H372.577c-26.752 0-49.138 18.696-54.804 43.735l-.072.376zm34.395-236.308v164.628c6.128-1.603 13.177-2.557 20.437-2.625H656.41a87.625 87.625 0 0121.087 2.758l-.607-.133V518.892c-3.604-86.907-74.932-155.996-162.396-155.996s-158.792 69.09-162.385 155.671l-.011.325zm4.989-336.082l26.256 107.651h34.396l68.004-81.657zm115.791-7.351l41.485 8.139 41.748-8.139-30.457-32.558h-22.581zm-9.19-210.052l44.111 147.561h13.128l43.586-147.561zm390.696 0H596.546L549.022 123.47l41.748 45.424 98.199-19.692h2.888l.196-.001c8.266 0 14.966 6.701 14.966 14.966 0 1.306-.167 2.573-.482 3.781l.023-.104-30.983 123.405h34.133c79.448-.595 143.624-65.137 143.624-144.669l-.001-.558v.029z"/><glyph unicode="" glyph-name="store" d="M917.476 64.032H107.79c-11.738 0-21.254 9.516-21.254 21.254s9.516 21.254 21.254 21.254h809.686c11.738 0 21.254-9.516 21.254-21.254s-9.516-21.254-21.254-21.254zm0 469.365H107.79c-11.738 0-21.254 9.516-21.254 21.254s9.516 21.254 21.254 21.254h809.686c11.738 0 21.254-9.516 21.254-21.254s-9.516-21.254-21.254-21.254zM831.953 64.032H533.381c-11.738 0-21.254 9.516-21.254 21.254v298.825c0 11.738 9.516 21.254 21.254 21.254h298.573c11.789 0 21.363-9.485 21.506-21.241V85.286c-.143-11.769-9.717-21.254-21.506-21.254h-.002zm-278.33 42.508h256.063v256.063H554.635zm129.55 128.032h-.002c-11.738 0-21.254 9.516-21.254 21.254l.002.267v-.013 128.032c0 11.738 9.516 21.254 21.254 21.254s21.254-9.516 21.254-21.254V256.08l.002-.253c0-11.738-9.516-21.254-21.254-21.254h-.002zM533.381 533.397H234.556c-11.769.142-21.256 9.716-21.256 21.506l.002.268v-.014 298.067c0 11.789 9.485 21.363 21.241 21.506h298.838c11.769-.143 21.254-9.717 21.254-21.506V555.156l.002-.254c0-11.79-9.486-21.364-21.242-21.506h-.013zm-278.33 42.508h257.075v256.063H256.063zm129.044 128.032c-11.878 0-21.507 9.629-21.507 21.507v126.513a20.72 20.72 0 00-.127 2.329c0 11.878 9.629 21.507 21.507 21.507s21.507-9.629 21.507-21.507c0-.821-.046-1.63-.135-2.427l.009.098V725.443c0-11.789-9.485-21.363-21.241-21.506h-.013zm64.016-639.905H192.048c-11.738 0-21.254 9.516-21.254 21.254v256.063c0 11.738 9.516 21.254 21.254 21.254h256.063c11.681-.141 21.113-9.573 21.254-21.241V85.286c-.141-11.681-9.573-21.113-21.241-21.254h-.013zM213.302 106.54h213.302v213.555H213.302zm106.777 128.032c-11.878 0-21.507 9.629-21.507 21.507v85.27c1.215 10.833 10.323 19.178 21.381 19.178s20.166-8.345 21.372-19.08l.009-.098v-85.271c0-11.789-9.485-21.363-21.241-21.506h-.013zM106.777-64H21.254C9.573-63.859.141-54.427 0-42.759v981.504c.141 11.681 9.573 21.113 21.241 21.254h85.536c11.681-.141 21.113-9.573 21.254-21.241V-42.746C127.89-54.427 118.458-63.859 106.79-64h-.013zM42.762-21.238h42.509v938.477H42.762zM1002.746-64h-85.271c-11.789 0-21.363 9.485-21.506 21.241v981.504c.143 11.769 9.717 21.254 21.506 21.254h85.272c11.681-.141 21.113-9.573 21.254-21.241V-42.746c-.141-11.681-9.573-21.113-21.241-21.254h-.013zM938.73-21.238h42.509v938.477H938.73z"/><glyph unicode="" glyph-name="video" d="M323.368 621.541c-8.696-15.076-24.729-25.06-43.094-25.06-27.384 0-49.583 22.199-49.583 49.583s22.199 49.583 49.583 49.583l.261-.001h-.013v33.145l-.312.001c-45.69 0-82.728-37.039-82.728-82.728s37.039-82.728 82.728-82.728c30.514 0 57.17 16.521 71.51 41.105l.212.393zm404.211-157.103h148.48c81.804.459 147.941 66.879 147.941 148.747v99.168c-.153 82.036-66.692 148.48-148.749 148.48H673.685l-34.223 99.166H417.416l-32.876-99.166H181.626C81.317 860.833.001 779.517.001 679.208v-15.629h99.975v-16.707c.153-100.247 81.378-181.472 181.611-181.625h247.661c.094-29.217 12.842-55.437 33.049-73.482l.097-.085V151.579a68.737 68.737 0 01-.004-.815c0-45.312 36.429-82.116 81.598-82.721l.057-.001h247.916V18.459C891.961-27.082 928.879-64 974.42-64h49.583v396.396H974.42c-45.479-.153-82.306-36.98-82.459-82.444v-49.598H693.628v190.518c20.606 18.008 33.64 44.234 33.953 73.512v.055zm198.063-215.579c.153 27.268 22.293 49.314 49.582 49.314h16.439V-30.854h-16.439c-27.289 0-49.43 22.046-49.582 49.299v.014zM441.398 926.855h174.349l22.097-66.021H419.301zm433.853-98.897c63.785-.153 115.451-51.819 115.604-115.59v-16.722H362.712c-5.384 54.906-34.35 102.118-76.498 131.928l-.572.384zM33.954 695.646c8.169 74.702 70.913 132.312 147.113 132.312 16.982 0 33.296-2.861 48.486-8.128l-1.039.313c-59.323-18.448-104.91-64.747-122.018-123.207l-.323-1.289zm98.088-49.583c.096 80.183 63.62 145.499 143.089 148.472l.271.008c33.024-27.432 53.897-68.507 53.897-114.457 0-.309-.001-.617-.003-.925v.047-15.629h99.166v-16.707c-6.727-76.526-70.512-136.099-148.211-136.099s-141.483 59.573-148.17 135.535l-.04.564zm402.324-148.48H384.808c47.13 33.126 77.563 87.244 77.608 148.473v16.714h528.438v-49.583c0-63.846-51.758-115.604-115.604-115.604H720.842c-13.989 38.735-50.438 65.923-93.238 65.923s-79.249-27.187-93.02-65.234l-.218-.689zm323.369-330.375h34.223v-66.021h-33.145zm-32.876 0v-66.021H644.035c-27.384 0-49.583 22.199-49.583 49.583 0 .284.002.568.007.851l-.001-.043v219.621c9.872-3.583 21.267-5.654 33.145-5.654s23.273 2.072 33.842 5.873l-.697-.219V200.352c0-18.211 14.686-32.992 32.861-33.144h.014zM626.526 398.417c-36.462 0-66.021 29.559-66.021 66.021s29.559 66.021 66.021 66.021 66.021-29.559 66.021-66.021v-.009c0-36.083-28.947-65.406-64.886-66.011l-.057-.001zm133.12 231.208v-99.166h132.312v99.166zm99.167-66.021h-66.021v33.145h66.021zM644.042 794.813H379.958v-32.876h264.084zm148.75-33.146h-33.145v-32.876h33.145zm66.021 0h-32.876v-32.876h32.876zm66.021 0h-32.876v-32.876h32.876z"/><glyph unicode="" glyph-name="construction" d="M739.732 180.555c3.138 0 6.147 1.315 8.365 3.657s3.466 5.519 3.466 8.831v72.846c0 3.311-1.248 6.486-3.466 8.828-2.219 2.345-5.227 3.66-8.365 3.66s-6.147-1.315-8.365-3.66c-2.219-2.341-3.466-5.516-3.466-8.828v-72.846c0-3.311 1.248-6.489 3.466-8.831s5.227-3.657 8.365-3.657zm-78.87 0c3.138 0 6.147 1.315 8.365 3.657s3.466 5.519 3.466 8.831v72.846c0 3.311-1.248 6.486-3.466 8.828-2.219 2.345-5.227 3.66-8.365 3.66s-6.147-1.315-8.365-3.66c-2.219-2.341-3.466-5.516-3.466-8.828v-72.846c0-3.311 1.248-6.489 3.466-8.831s5.227-3.657 8.365-3.657zm157.74 0c3.138 0 6.147 1.315 8.365 3.657s3.466 5.519 3.466 8.831v72.846c0 3.311-1.248 6.486-3.466 8.828-2.219 2.345-5.227 3.66-8.365 3.66s-6.147-1.315-8.365-3.66c-2.219-2.341-3.466-5.516-3.466-8.828v-72.846c0-3.311 1.248-6.489 3.466-8.831s5.227-3.657 8.365-3.657zm78.87 0c3.138 0 6.147 1.315 8.365 3.657s3.466 5.519 3.466 8.831v72.846c0 3.311-1.248 6.486-3.466 8.828-2.219 2.345-5.227 3.66-8.365 3.66s-6.147-1.315-8.365-3.66c-2.219-2.341-3.466-5.516-3.466-8.828v-72.846c0-3.311 1.248-6.489 3.466-8.831s5.227-3.657 8.365-3.657zm-192.69 637.914h-11.497c-3.135 0-6.147-1.315-8.365-3.658s-3.463-5.519-3.463-8.83 1.245-6.488 3.463-8.83 5.23-3.658 8.365-3.658h11.497c3.138 0 6.147 1.315 8.365 3.658s3.463 5.519 3.463 8.83c0 3.312-1.245 6.488-3.463 8.83s-5.227 3.658-8.365 3.658zm-46.839 0H406.508c-3.138 0-6.147-1.315-8.365-3.658s-3.466-5.519-3.466-8.83 1.248-6.488 3.466-8.83 5.227-3.658 8.365-3.658h251.435c3.138 0 6.147 1.315 8.365 3.658 2.221 2.341 3.466 5.519 3.466 8.83s-1.245 6.488-3.466 8.83c-2.219 2.341-5.227 3.658-8.365 3.658zm326.225-486.812c-.023.227-.061.449-.096.67-.025.179-.045.356-.076.528-.048.258-.114.508-.179.76-.033.143-.061.283-.104.418-.065.227-.149.449-.225.67-.056.16-.106.323-.165.482-.061.157-.165.367-.247.549-.084.185-.162.379-.255.558-.076.149-.162.289-.241.435-.118.207-.227.415-.356.622-.076.121-.162.233-.244.354-.143.207-.286.415-.443.622-.112.143-.233.272-.351.407-.114.134-.275.336-.424.493a13.65 13.65 0 01-.867.833l-.02.017-180.682 155.678c7.319 2.613 14.015 6.873 19.627 12.485 5.608 5.611 9.997 12.443 12.863 20.017a13.13 13.13 0 01-.087 9.566c-1.228 3.048-3.553 5.457-6.467 6.697a11.26 11.26 0 01-9.058-.089c-2.891-1.299-5.171-3.753-6.346-6.826-2.204-5.864-6.026-10.891-10.97-14.434-4.947-3.541-10.785-5.432-16.761-5.424-8.006 0-15.685 3.357-21.346 9.332s-8.842 14.08-8.842 22.532c0 8.449 3.18 16.554 8.842 22.53s13.34 9.332 21.346 9.332c3.138 0 6.147 1.318 8.365 3.66s3.466 5.519 3.466 8.831v95.469h47.776c3.135 0 6.147 1.315 8.365 3.657s3.463 5.519 3.463 8.83v49.41h24.845c1.557 0 3.099.325 4.537.955s2.745 1.556 3.844 2.72c1.099 1.166 1.969 2.547 2.56 4.069s.895 3.151.887 4.795l-.334 85.77c-.014 2.976-1.038 5.848-2.879 8.099-1.845 2.252-4.388 3.734-7.176 4.18v.012L271.844 959.84c-.587.098-1.18.15-1.774.156H138.03c-1.623.001-3.229-.353-4.717-1.039s-2.825-1.688-3.929-2.945l-86.451-97.914c-2.046-2.309-3.18-5.354-3.174-8.515v-85.77c0-3.311 1.247-6.488 3.465-8.83s5.228-3.658 8.366-3.658h74.67l-.059-724.911c-18.273-1.986-35.2-11.052-47.51-25.443-12.31-14.394-19.127-33.093-19.135-52.482 0-3.311 1.247-6.489 3.465-8.831s5.228-3.657 8.366-3.657h263.8c3.138 0 6.147 1.315 8.365 3.657s3.466 5.519 3.466 8.831c-.025 19.103-6.652 37.538-18.64 51.848-11.985 14.313-28.508 23.513-46.467 25.881l.114 725.107h426.156v-49.41c0-3.311 1.245-6.488 3.466-8.83 2.219-2.341 5.227-3.657 8.365-3.657h50.16v-84.377c-11.068-2.697-21.046-9.016-28.508-18.056-7.465-9.038-12.033-20.334-13.057-32.275-1.021-11.943 1.557-23.92 7.364-34.224 5.808-10.305 14.551-18.41 24.981-23.161L578.434 340.058a10.907 10.907 0 01-.852-.813c-.165-.171-.314-.356-.468-.538-.104-.126-.215-.241-.317-.373a10.589 10.589 0 01-.455-.637c-.076-.114-.16-.222-.235-.339-.129-.207-.241-.415-.356-.625-.081-.143-.169-.28-.241-.429-.093-.179-.171-.37-.255-.556-.081-.188-.171-.364-.247-.553s-.109-.319-.165-.482c-.076-.222-.16-.443-.225-.67-.042-.143-.07-.289-.104-.432-.065-.247-.132-.496-.179-.751-.033-.182-.053-.367-.078-.549-.033-.21-.073-.429-.093-.65-.04-.409-.059-.822-.059-1.231V128.52c0-3.311 1.248-6.486 3.466-8.831 2.219-2.341 5.227-3.657 8.365-3.657h386.461c3.138 0 6.147 1.315 8.368 3.657 2.219 2.345 3.463 5.519 3.463 8.831v201.91c0 .409-.023.819-.061 1.226zM722.021 862.072H281.982l-.057 70.897 440.096-70.897zm-463.701 0h-83.056l83.011 61.442.046-61.442zm-108.483 72.949h82.762l-82.898-61.367.136 61.367zm-23.712-19.312l-.118-53.637H78.788l47.338 53.637zm195.837-954.73H84.606c2.67 11.646 8.969 22.005 17.886 29.417 8.916 7.415 19.935 11.45 31.284 11.461h139.028c11.348-.017 22.361-4.055 31.277-11.467 8.912-7.411 15.21-17.771 17.882-29.411zM243.3 659.666l-93.388-45.37v90.716l93.388-45.346zm-93.378 72.846v18.815h108.445l-.011-71.479-108.434 52.664zm108.429-93.035l-.016-94.585-97.365 47.277 97.38 47.308zm-15.666-114.469l-92.783-45.05v90.098l92.783-45.047zm15.644-19.896l-.014-90.505-93.161 45.255 93.175 45.249zm-15.95-110.259l-92.488-44.927v89.854l92.488-44.927zm15.93-19.755l-.016-93.152-95.86 46.588 95.875 46.565zm-15.344-113.197l-93.084-45.227v90.452l93.084-45.224zm15.322-20.047l-.014-94.82-97.602 47.395 97.615 47.425zm-15.891-114.602L149.87 82.319v89.871l92.526-44.938zm15.871-19.785l-.014-80.636H149.864v27.978l108.403 52.659zm473.577 606.938v36.922h23.662c3.138 0 6.147 1.315 8.365 3.658s3.466 5.519 3.466 8.83c0 3.312-1.248 6.488-3.466 8.83s-5.227 3.658-8.365 3.658H63.423v60.794H866.17l.235-60.794h-67.521c-3.138 0-6.147-1.315-8.365-3.658-2.221-2.342-3.466-5.519-3.466-8.83s1.245-6.488 3.466-8.83c2.219-2.341 5.227-3.658 8.365-3.658h30.898v-36.922h-97.939zm47.321-233.614l160.031-137.894H619.135l160.031 137.894zm181.402-339.782H597.766v176.909h362.801V141.009z"/><glyph unicode="" glyph-name="container-1" d="M1008.973 660.001c8.287 0 14.999 6.716 14.999 14.999s-6.714 14.999-14.999 14.999H906.391c-8.287 0-14.999-6.716-14.999-14.999s6.714-14.999 14.999-14.999h58.5V328.014H643.853c-8.287 0-14.999-6.716-14.999-14.999s6.714-14.999 14.999-14.999h52.92V-33.971H59.093v331.987h516.044c8.287 0 14.999 6.716 14.999 14.999s-6.714 14.999-14.999 14.999H327.212V522.9c0 8.284-6.714 14.999-14.999 14.999s-14.999-6.716-14.999-14.999V328.014H15.012c-8.286 0-14.999-6.716-14.999-14.999s6.714-14.999 14.999-14.999h14.083V-33.971H15.012C6.726-33.971.013-40.687.013-48.97s6.714-14.999 14.999-14.999h725.845c8.287 0 14.999 6.716 14.999 14.999s-6.714 14.999-14.999 14.999h-14.083v331.987h282.202c8.287 0 14.999 6.716 14.999 14.999s-6.714 14.999-14.999 14.999h-14.083v331.987h14.083zM836.519 690H283.154c-8.287 0-14.999-6.716-14.999-14.999s6.714-14.999 14.999-14.999h14.083v-67.096c0-8.287 6.714-14.999 14.999-14.999s14.999 6.714 14.999 14.999v67.096h509.279c8.287 0 14.999 6.716 14.999 14.999S844.799 690 836.516 690zM102.262 242.017V22.025c0-8.284 6.714-14.999 14.999-14.999s14.999 6.716 14.999 14.999v219.992c0 8.284-6.714 14.999-14.999 14.999s-14.999-6.716-14.999-14.999zm74.459 0V22.025c0-8.284 6.714-14.999 14.999-14.999s14.999 6.716 14.999 14.999v219.992c0 8.284-6.714 14.999-14.999 14.999s-14.999-6.716-14.999-14.999zm74.511 0V22.025c0-8.284 6.714-14.999 15-14.999 8.284 0 14.997 6.716 14.997 14.999v219.992c0 8.284-6.714 14.999-14.997 14.999-8.287 0-15-6.716-15-14.999zm74.458 0V22.025c0-8.284 6.714-14.999 14.999-14.999s14.999 6.716 14.999 14.999v219.992c0 8.284-6.714 14.999-14.999 14.999s-14.999-6.716-14.999-14.999zm74.458 0V22.025c0-8.284 6.714-14.999 14.999-14.999s14.999 6.716 14.999 14.999v219.992c0 8.284-6.714 14.999-14.999 14.999s-14.999-6.716-14.999-14.999zm74.51 0V22.025c0-8.284 6.714-14.999 14.999-14.999s14.999 6.716 14.999 14.999v219.992c0 8.284-6.714 14.999-14.999 14.999s-14.999-6.716-14.999-14.999zm89.46 14.999c-8.287 0-14.999-6.716-14.999-14.999V22.025c0-8.284 6.714-14.999 14.999-14.999s14.997 6.716 14.997 14.999v219.992c0 8.284-6.714 14.999-14.997 14.999zM638.626 7.025c8.287 0 14.999 6.716 14.999 14.999v219.992c0 8.284-6.714 14.999-14.999 14.999s-14.997-6.716-14.997-14.999V22.024c0-8.284 6.714-14.999 14.997-14.999zm-268.27 596.978V384.011c0-8.284 6.714-14.999 14.999-14.999 8.284 0 14.997 6.716 14.997 14.999v219.992c0 8.284-6.714 14.999-14.997 14.999-8.287 0-14.999-6.716-14.999-14.999zm74.51 0V384.011c0-8.284 6.714-14.999 14.997-14.999 8.287 0 14.999 6.716 14.999 14.999v219.992c0 8.284-6.714 14.999-14.999 14.999-8.284 0-14.997-6.716-14.997-14.999zm74.458 0V384.011c0-8.284 6.714-14.999 14.999-14.999s14.999 6.716 14.999 14.999v219.992c0 8.284-6.714 14.999-14.999 14.999s-14.999-6.716-14.999-14.999zm104.51 0c0 8.284-6.714 14.999-14.999 14.999s-14.999-6.716-14.999-14.999V384.011c0-8.284 6.714-14.999 14.999-14.999s14.999 6.716 14.999 14.999v219.992zm44.458 0V384.011c0-8.284 6.714-14.999 14.999-14.999s14.999 6.716 14.999 14.999v219.992c0 8.284-6.714 14.999-14.999 14.999s-14.999-6.716-14.999-14.999zm74.461 0V384.011c0-8.284 6.714-14.999 14.999-14.999s14.997 6.716 14.997 14.999v219.992c0 8.284-6.714 14.999-14.997 14.999-8.287 0-14.999-6.716-14.999-14.999zm89.507 15c-8.284 0-14.997-6.716-14.997-14.999V384.012c0-8.284 6.714-14.999 14.997-14.999 8.287 0 14.999 6.716 14.999 14.999v219.992c0 8.284-6.716 14.999-14.999 14.999zm89.46-234.992v219.992c0 8.284-6.714 14.999-14.999 14.999s-14.999-6.716-14.999-14.999V384.011c0-8.284 6.714-14.999 14.999-14.999s14.999 6.716 14.999 14.999zm87.253 455.33h-99.581l33.765 50.652h65.818c8.287 0 14.999 6.716 14.999 14.999s-6.714 14.999-14.999 14.999H164.026v24.999c0 8.284-6.714 14.999-14.999 14.999s-14.999-6.716-14.999-14.999v-24.999H94.043v24.999c0 8.284-6.714 14.999-14.999 14.999s-14.999-6.716-14.999-14.999v-24.999H15.013c-8.286 0-14.999-6.716-14.999-14.999v-80.651c0-8.284 6.714-14.999 14.999-14.999h49.032v-92.079C27.616 710.233.013 678.103.013 639.648c0-43.584 35.455-79.042 79.031-79.042s79.031 35.456 79.031 79.039c0 8.284-6.714 14.999-14.999 14.999s-14.999-6.716-14.999-14.999c0-27.043-21.995-49.04-49.032-49.04s-49.032 21.999-49.032 49.042c0 27.043 21.995 49.045 49.032 49.045 8.286 0 14.999 6.716 14.999 14.998v105.65h39.985v-24.999c0-8.284 6.714-14.999 14.999-14.999s14.999 6.716 14.999 14.999v24.999h844.949c8.287 0 14.999 6.716 14.999 14.999s-6.714 14.999-14.999 14.999zm-135.636 0h-48.179l33.765 50.652h48.181l-33.767-50.652zm-519.372 50.652h48.181l-33.765-50.652h-48.179l33.762 50.652zm-69.814-50.652h-48.036l33.764 50.652h48.034l-33.762-50.652zm154.047 50.652h48.037l-33.765-50.652h-48.037l33.765 50.652zm84.088 0h48.179L536.7 839.341h-48.179l33.765 50.652zm84.233 0h48.034l-33.762-50.652h-48.037l33.765 50.652zm84.085 0h48.181l-33.765-50.652h-48.179l33.762 50.652zm84.23 0h48.037l-33.762-50.652h-48.037l33.762 50.652zM30.009 839.341v50.652h34.033v-50.652H30.009zm64.031 0v50.652h39.985v-50.652H94.04zm69.984 50.652h69.805l-33.763-50.652h-36.043v50.652z"/><glyph unicode="" glyph-name="correct" d="M511.991-63.972C229.673-63.972.01 165.693.01 448.009S229.674 959.99 511.991 959.99s511.981-229.664 511.981-511.981S794.307-63.972 511.991-63.972zm0 959.965c-247.03 0-447.984-200.954-447.984-447.984S264.961.025 511.991.025c247.03 0 447.984 200.954 447.984 447.984S759.021 895.993 511.991 895.993zm-48.008-618.645c-8.195 0-16.383 3.109-22.616 9.381l-138.66 138.66c-12.498 12.509-12.498 32.772 0 45.272 12.501 12.498 32.764 12.498 45.272 0l116.044-116.052 254.718 254.71c12.498 12.501 32.764 12.501 45.261 0 12.501-12.501 12.501-32.764 0-45.264L486.676 286.729c-6.312-6.273-14.498-9.381-22.692-9.381z"/><glyph unicode="" glyph-name="credit-card-1" d="M974.632 802.848H49.358c-27.143 0-49.348-21.65-49.348-48.113V141.278c0-26.465 22.205-48.117 49.348-48.117h925.274c27.14 0 49.347 21.652 49.347 48.117v613.457c0 26.463-22.205 48.113-49.347 48.113zM37.02 754.736c0 6.519 5.65 12.027 12.335 12.027h925.273c6.686 0 12.336-5.509 12.336-12.027v-60.142H37.02v60.142zm949.951-613.457c-.003-6.521-5.65-12.029-12.339-12.029H49.358c-6.685 0-12.335 5.509-12.335 12.029v372.884H986.97V141.279zm0 408.97H37.021v108.257h949.947V550.249h.003zM832.748 393.884c-28.904 0-55.059-11.402-74.02-29.831-18.974 18.429-45.131 29.831-74.023 29.831-57.921 0-104.862-45.779-104.862-102.24 0-56.452 46.941-102.24 104.862-102.24 28.894 0 55.049 11.404 74.023 29.833 18.964-18.429 45.116-29.833 74.02-29.833 57.901 0 104.865 45.791 104.865 102.24.003 56.462-46.964 102.24-104.865 102.24zm0-168.399c-18.073 0-35.083 6.855-47.891 19.307-7.229 7.014-16.681 10.524-26.129 10.524-9.451 0-18.903-3.51-26.118-10.524-12.818-12.451-29.844-19.307-47.906-19.307-37.415 0-67.853 29.674-67.853 66.156 0 36.484 30.435 66.159 67.853 66.159 18.06 0 35.086-6.855 47.906-19.307 7.217-7.022 16.678-10.524 26.118-10.524 9.464 0 18.9 3.51 26.129 10.524 12.804 12.451 29.818 19.307 47.891 19.307 37.418 0 67.856-29.674 67.856-66.159 0-36.481-30.435-66.156-67.856-66.156zM407.099 357.787H111.012c-10.216 0-18.505-8.084-18.505-18.043s8.292-18.043 18.505-18.043h296.087c10.217 0 18.506 8.084 18.506 18.043s-8.289 18.043-18.506 18.043zm-160.356-84.173h-135.73c-10.216 0-18.505-8.084-18.505-18.043s8.292-18.043 18.505-18.043h135.732c10.215 0 18.504 8.084 18.504 18.043s-8.291 18.043-18.506 18.043z"/><glyph unicode="" d="M809.878 838.975c-79.123 79.123-186.172 121.012-297.876 121.012S293.25 918.098 214.126 838.975C135.003 759.852 93.114 652.803 93.114 541.099c0-325.801 418.887-605.06 418.887-605.06s418.887 279.258 418.887 605.06c0 111.703-41.889 218.752-121.012 297.876zM512.003 401.47c-79.123 0-139.629 60.506-139.629 139.629s60.506 139.629 139.629 139.629 139.629-60.506 139.629-139.629S591.126 401.47 512.003 401.47z"/><glyph unicode="" glyph-name="volume" d="M922.08 723.027L536.476 952.654c-15.798 9.79-35.379 9.79-50.954 0L100.808 723.027c-15.353-9.568-24.921-26.923-24.921-45.169V218.382c0-19.358 9.568-36.491 24.921-45.169L486.857-56.636c7.12-3.56 15.798-7.343 25.811-7.343 9.345 0 18.023 2.67 24.476 7.12l386.049 230.072c15.353 9.568 24.921 26.923 24.921 45.169v459.476c0 19.803-9.79 36.714-26.033 45.169zM177.128 586.408l283.251-168.215V80.206L176.906 248.643v337.765h.223zm334.427 259.888l283.473-168.437-283.473-168.437-283.473 168.437 283.473 168.437zm334.427-259.888V248.421L562.509 80.206v337.765l283.473 168.437z"/><glyph unicode="" d="M0 960h1024V-64H0V960z"/><glyph unicode="" d="M102.4 847.36h92.16V17.92H102.4v829.44z"/><glyph unicode="" d="M276.48 847.36h92.16V17.92h-92.16v829.44z"/><glyph unicode="" d="M460.8 847.36h92.16V17.92H460.8v829.44z"/><glyph unicode="" d="M645.12 847.36h92.16V17.92h-92.16v829.44z"/><glyph unicode="" d="M819.2 847.36h92.16V17.92H819.2v829.44z"/><glyph unicode="" d="M13.21 960h997.581c7.295 0 13.21-5.914 13.21-13.21V-50.791c0-7.295-5.914-13.21-13.21-13.21H13.21C5.915-64.001 0-58.087 0-50.791V946.79C0 954.085 5.914 960 13.21 960z"/><glyph unicode="" d="M145.101 812.442h67.073a8.703 8.703 0 008.703-8.596V61.441c-.058-4.763-3.932-8.602-8.703-8.602H145.1a8.703 8.703 0 00-8.703 8.596V803.84c.058 4.763 3.932 8.602 8.703 8.602h.001z"/><glyph unicode="" d="M304.538 812.442h67.073a8.703 8.703 0 008.703-8.596V61.441c-.058-4.763-3.932-8.602-8.703-8.602h-67.074a8.703 8.703 0 00-8.703 8.596V803.84c.058 4.763 3.932 8.602 8.703 8.602h.001z"/><glyph unicode="" d="M473.293 812.442h67.174c4.727-.057 8.545-3.874 8.602-8.596V61.441c-.057-4.727-3.874-8.545-8.596-8.602h-67.179c-4.727.057-8.545 3.874-8.602 8.596V803.84c.057 4.727 3.874 8.545 8.596 8.602h.005z"/><glyph unicode="" d="M642.15 812.442h67.073a8.703 8.703 0 008.703-8.596V61.441c-.058-4.763-3.932-8.602-8.703-8.602h-67.074a8.703 8.703 0 00-8.703 8.596V803.84c.058 4.763 3.932 8.602 8.703 8.602h.001z"/><glyph unicode="" d="M801.587 812.442h67.073a8.703 8.703 0 008.703-8.596V61.441c-.058-4.763-3.932-8.602-8.703-8.602h-67.074a8.703 8.703 0 00-8.703 8.596V803.84c.058 4.763 3.932 8.602 8.703 8.602h.001z"/><glyph unicode="" d="M13.21 960h997.581c7.295 0 13.21-5.914 13.21-13.21V-50.791c0-7.295-5.914-13.21-13.21-13.21H13.21C5.915-64.001 0-58.087 0-50.791V946.79C0 954.085 5.914 960 13.21 960z"/><glyph unicode="" d="M145.101 812.442h67.073a8.703 8.703 0 008.703-8.596V61.441c-.058-4.763-3.932-8.602-8.703-8.602H145.1a8.703 8.703 0 00-8.703 8.596V803.84c.058 4.763 3.932 8.602 8.703 8.602h.001z"/><glyph unicode="" d="M304.538 812.442h67.073a8.703 8.703 0 008.703-8.596V61.441c-.058-4.763-3.932-8.602-8.703-8.602h-67.074a8.703 8.703 0 00-8.703 8.596V803.84c.058 4.763 3.932 8.602 8.703 8.602h.001z"/><glyph unicode="" d="M473.293 812.442h67.174c4.727-.057 8.545-3.874 8.602-8.596V61.441c-.057-4.727-3.874-8.545-8.596-8.602h-67.179c-4.727.057-8.545 3.874-8.602 8.596V803.84c.057 4.727 3.874 8.545 8.596 8.602h.005z"/><glyph unicode="" d="M642.15 812.442h67.073a8.703 8.703 0 008.703-8.596V61.441c-.058-4.763-3.932-8.602-8.703-8.602h-67.074a8.703 8.703 0 00-8.703 8.596V803.84c.058 4.763 3.932 8.602 8.703 8.602h.001z"/><glyph unicode="" d="M801.587 812.442h67.073a8.703 8.703 0 008.703-8.596V61.441c-.058-4.763-3.932-8.602-8.703-8.602h-67.074a8.703 8.703 0 00-8.703 8.596V803.84c.058 4.763 3.932 8.602 8.703 8.602h.001z"/><glyph unicode="" glyph-name="dimensions" d="M674.189 58.596V-63.982H.014v674.176h122.578V145.269l814.705 814.707 86.675-86.675L209.268 58.595h464.923z"/><glyph unicode="" glyph-name="area" d="M870.378 192.018v511.981h153.594v102.396H870.378v153.594H767.982V806.395H256.001v153.594H153.605V806.395H.011V703.999h153.594V192.018H.011V89.622h153.594V-63.972h102.396V89.622h511.981V-63.972h102.396V89.622h153.594v102.396H870.378zM256 704h511.981V192.019H256V704z"/><glyph unicode="" glyph-name="pallets" d="M1024 857.6c0 56.554-45.844 102.4-102.4 102.4H102.4C45.846 960 0 914.154 0 857.6V38.4C0-18.156 45.846-64 102.4-64h819.2C978.156-64 1024-18.156 1024 38.4v819.2zm-307.2 0h204.8V499.2H716.8v358.4zM614.4 396.8V38.4H409.6v358.4h204.8zM409.6 499.2v358.4h204.8V499.2H409.6zm-102.4 0H102.4v358.4h204.8V499.2zm0-102.4V38.4H102.4v358.4h204.8zM716.8 38.4v358.4h204.8V38.4H716.8z"/><glyph unicode="" glyph-name="close" d="M919.482 933.975L14.472 28.965c-19.255-19.255-19.255-53.915 0-77.022s53.915-19.255 77.022 0l905.01 905.01c19.255 19.255 19.255 53.915 0 77.022s-57.767 19.255-77.022 0zm88.575-893.457l-905.01 905.01c-19.255 19.255-53.915 19.255-77.022 0s-19.255-53.915 0-77.022l905.01-905.01c19.255-19.255 53.915-19.255 77.022 0s19.255 57.767 0 77.022z"/><glyph unicode="" glyph-name="filter" d="M982.29 959.99H43.205c-13.947 0-23.245-13.947-13.947-27.893l344.021-483.49c13.947-18.596 23.245-46.489 23.245-74.383V-44.18c0-13.947 13.947-23.245 23.245-18.596l195.255 74.383c4.649 0 9.298 9.298 9.298 13.947v348.67c0 27.893 9.298 51.138 23.245 74.383l344.021 483.49c13.947 13.947 4.649 27.893-9.298 27.893z"/><glyph unicode="" glyph-name="resize" d="M992.847 577.727c-17.297 0-31.134 13.837-31.134 31.134v287.125H674.588c-17.297 0-31.134 13.837-31.134 31.134s13.837 31.134 31.134 31.134h318.259c17.297 0 31.134-13.837 31.134-31.134V608.861c0-17.297-13.837-31.134-31.134-31.134zM352.871-62.249H31.153C13.856-62.249.019-48.412.019-31.115v318.259c0 17.297 13.837 31.134 31.134 31.134s31.134-13.837 31.134-31.134V.019h287.125c17.297 0 31.134-13.837 31.134-31.134s-10.378-31.134-27.675-31.134z"/><glyph unicode="" glyph-name="play-outline" d="M113.412-63.98c-9.163 0-18.326 4.582-27.489 9.163-18.326 9.163-27.489 27.489-27.489 45.815v916.295c0 18.326 9.163 36.651 27.489 45.815s36.651 9.163 54.978 0L938.078 494.96c18.326-9.163 27.489-27.489 27.489-45.815s-9.163-36.651-27.489-45.815L140.901-54.818c-9.163-4.582-18.326-9.163-27.489-9.163zm0 971.274V-9.001l797.177 458.148-797.177 458.148z"/><glyph unicode="" glyph-name="play" d="M949.95 416.753c1.488 1.488 2.976 4.465 4.465 5.954s1.488 4.465 2.976 7.442c1.488 1.488 1.488 4.465 2.976 5.954 2.976 8.93 2.976 17.861 0 26.79 0 1.488-1.488 4.465-2.976 5.954-1.488 2.976-1.488 4.465-2.976 7.442-1.488 1.488-2.976 4.465-4.465 5.954l-4.465 4.465c-1.489 1.489-7.442 5.954-11.907 8.93L140.287 952.562c-4.465 2.976-8.93 4.465-13.395 5.954h-4.465c-2.976 0-5.954 1.488-8.93 1.488h-4.465c-2.976 0-5.954 0-8.93-1.488l-8.93-4.465c-1.488 0-2.976-1.488-4.465-1.488s-1.488-1.488-2.976-1.488c-1.488-2.976-4.465-4.465-7.442-7.442l-4.465-4.465c-1.489-1.489-2.976-2.976-4.465-5.954 0-1.488-1.488-4.465-2.976-5.954 0-2.976-1.488-4.465-1.488-5.954-1.488-4.465-1.488-8.93-1.488-14.883V-10.402c0-4.465 0-8.93 1.488-13.395 0-2.976 1.488-4.465 1.488-7.442 1.488-2.976 1.488-4.465 2.976-7.442 1.488-1.488 2.976-4.465 4.465-5.954l4.465-4.465c1.489-1.489 5.954-5.954 10.419-7.442 4.465-1.488 7.442-4.465 11.907-4.465 2.976 0 4.465-1.488 7.442-1.488 1.488 0 4.465-1.488 5.954-1.488 2.976 0 5.954 0 8.93 1.488h4.465c4.465 1.488 8.93 2.976 13.395 5.954l794.78 458.412c4.465 2.976 7.442 5.954 11.907 8.93 1.488 1.488 2.976 2.976 4.465 5.954z"/></font>
</defs>
</svg>
