<svg xmlns="http://www.w3.org/2000/svg" width="1160" height="8"><path fill-rule="evenodd" fill="#D6D3C5" d="M1160 7h-10l-.384.32-.267-.32H1149v-.419l-4.384-5.261.768-.64 4.433 5.32H1160v1zm-24-7h9v1h-9V0zm-4.616 7.32L1131 7h-10l-.384.32-.267-.32H1120v-.419l-4.384-5.261.768-.64 4.433 5.32H1131v.219l4.616-5.539.768.64-5 6zM1107 0h9v1h-9V0zm-4.616 7.32L1102 7h-10l-.384.32-.267-.32H1091v-.419l-4.384-5.261.768-.64 4.433 5.32H1102v.219l4.616-5.539.768.64-5 6zM1078 0h9v1h-9V0zm-4.616 7.32L1073 7h-10l-.384.32-.267-.32H1062v-.419l-4.384-5.261.768-.64 4.433 5.32H1073v.219l4.616-5.539.768.64-5 6zM1049 0h9v1h-9V0zm-4.616 7.32L1044 7h-10l-.384.32-.267-.32H1033v-.419l-4.384-5.261.768-.64 4.433 5.32H1044v.219l4.616-5.539.768.64-5 6zM1020 0h9v1h-9V0zm-4.616 7.32L1015 7h-10l-.384.32-.267-.32H1004v-.419l-4.384-5.261.768-.64 4.433 5.32H1015v.219l4.616-5.539.768.64-5 6zM991 0h9v1h-9V0zm-4.616 7.32L986 7h-10l-.384.32-.267-.32H975v-.419l-4.384-5.261.768-.64L975.817 6H986v.219L990.616.68l.768.64-5 6zM962 0h9v1h-9V0zm-4.616 7.32L957 7h-10l-.384.32-.267-.32H946v-.419l-4.384-5.261.768-.64L946.817 6H957v.219L961.616.68l.768.64-5 6zM933 0h9v1h-9V0zm-4.616 7.32L928 7h-10l-.384.32-.267-.32H917v-.419l-4.384-5.261.768-.64L917.817 6H928v.219L932.616.68l.768.64-5 6zM904 0h9v1h-9V0zm-4.616 7.32L899 7h-10l-.384.32-.267-.32H888v-.419l-4.384-5.261.768-.64L888.817 6H899v.219L903.616.68l.768.64-5 6zM875 0h9v1h-9V0zm-4.616 7.32L870 7h-10l-.384.32-.267-.32H859v-.419l-4.384-5.261.768-.64L859.817 6H870v.219L874.616.68l.768.64-5 6zM846 0h9v1h-9V0zm-4.616 7.32L841 7h-10l-.384.32-.267-.32H830v-.419l-4.384-5.261.768-.64L830.817 6H841v.219L845.616.68l.768.64-5 6zM817 0h9v1h-9V0zm-4.616 7.32L812 7h-10l-.384.32-.267-.32H801v-.419l-4.384-5.261.768-.64L801.817 6H812v.219L816.616.68l.768.64-5 6zM788 0h9v1h-9V0zm-4.616 7.32L783 7h-10l-.384.32-.267-.32H772v-.419l-4.384-5.261.768-.64L772.817 6H783v.219L787.616.68l.768.64-5 6zM759 0h9v1h-9V0zm-4.616 7.32L754 7h-10l-.384.32-.267-.32H743v-.419l-4.384-5.261.768-.64L743.817 6H754v.219L758.616.68l.768.64-5 6zM730 0h9v1h-9V0zm-4.616 7.32L725 7h-10l-.384.32-.267-.32H714v-.419l-4.384-5.261.768-.64L714.817 6H725v.219L729.616.68l.768.64-5 6zM701 0h9v1h-9V0zm-4.616 7.32L696 7h-10l-.384.32-.267-.32H685v-.419l-4.384-5.261.768-.64L685.817 6H696v.219L700.616.68l.768.64-5 6zM672 0h9v1h-9V0zm-4.616 7.32L667 7h-10l-.384.32-.267-.32H656v-.419l-4.384-5.261.768-.64L656.817 6H667v.219L671.616.68l.768.64-5 6zM643 0h9v1h-9V0zm-4.616 7.32L638 7h-10l-.384.32-.267-.32H627v-.419l-4.384-5.261.768-.64L627.817 6H638v.219L642.616.68l.768.64-5 6zM614 0h9v1h-9V0zm-4.616 7.32L609 7h-10l-.384.32-.267-.32H598v-.419l-4.384-5.261.768-.64L598.817 6H609v.219L613.616.68l.768.64-5 6zM585 0h9v1h-9V0zm-4.616 7.32L580 7h-10l-.384.32-.267-.32H569v-.419l-4.384-5.261.768-.64L569.817 6H580v.219L584.616.68l.768.64-5 6zM556 0h9v1h-9V0zm-4.616 7.32L551 7h-10l-.384.32-.267-.32H540v-.419l-4.384-5.261.768-.64L540.817 6H551v.219L555.616.68l.768.64-5 6zM527 0h9v1h-9V0zm-4.616 7.32L522 7h-10l-.384.32-.267-.32H511v-.419l-4.384-5.261.768-.64L511.817 6H522v.219L526.616.68l.768.64-5 6zM498 0h9v1h-9V0zm-4.616 7.32L493 7h-10l-.384.32-.267-.32H482v-.419l-4.384-5.261.768-.64L482.817 6H493v.219L497.616.68l.768.64-5 6zM469 0h9v1h-9V0zm-4.616 7.32L464 7h-10l-.384.32-.267-.32H453v-.419l-4.384-5.261.768-.64L453.817 6H464v.219L468.616.68l.768.64-5 6zM440 0h9v1h-9V0zm-4.616 7.32L435 7h-10l-.384.32-.267-.32H424v-.419l-4.384-5.261.768-.64L424.817 6H435v.219L439.616.68l.768.64-5 6zM411 0h9v1h-9V0zm-4.616 7.32L406 7h-10l-.384.32-.267-.32H395v-.419l-4.384-5.261.768-.64L395.817 6H406v.219L410.616.68l.768.64-5 6zM382 0h9v1h-9V0zm-4.616 7.32L377 7h-10l-.384.32-.267-.32H366v-.419l-4.384-5.261.768-.64L366.817 6H377v.219L381.616.68l.768.64-5 6zM353 0h9v1h-9V0zm-4.616 7.32L348 7h-10l-.384.32-.267-.32H337v-.419l-4.384-5.261.768-.64L337.817 6H348v.219L352.616.68l.768.64-5 6zM324 0h9v1h-9V0zm-4.616 7.32L319 7h-10l-.384.32-.267-.32H308v-.419l-4.384-5.261.768-.64L308.817 6H319v.219L323.616.68l.768.64-5 6zM295 0h9v1h-9V0zm-4.616 7.32L290 7h-10l-.384.32-.267-.32H279v-.419l-4.384-5.261.768-.64L279.817 6H290v.219L294.616.68l.768.64-5 6zM266 0h9v1h-9V0zm-4.616 7.32L261 7h-10l-.384.32-.267-.32H250v-.419l-4.384-5.261.768-.64L250.817 6H261v.219L265.616.68l.768.64-5 6zM237 0h9v1h-9V0zm-4 6.581V7h-.349l-.267.32L232 7h-9l-.384.32-.267-.32H222v-.419l-4.384-5.261.768-.64L222.817 6h9.365l4.434-5.32.768.64L233 6.581zM209 0h9v1h-9V0zm-4.616 7.32L204 7h-10l-.384.32-.267-.32H193v-.419l-4.384-5.261.768-.64L193.817 6H204v.219L208.616.68l.768.64-5 6zM180 0h9v1h-9V0zm-4.616 7.32L175 7h-10l-.384.32-.267-.32H164v-.419l-4.384-5.261.768-.64L164.817 6H175v.219L179.616.68l.768.64-5 6zM151 0h9v1h-9V0zm-4.616 7.32L146 7h-10l-.384.32-.267-.32H135v-.419l-4.384-5.261.768-.64L135.817 6H146v.219L150.616.68l.768.64-5 6zM122 0h9v1h-9V0zm-4.616 7.32L117 7h-10l-.384.32-.267-.32H106v-.419l-4.384-5.261.768-.64L106.817 6H117v.219L121.616.68l.768.64-5 6zM93 0h9v1h-9V0zm-4.616 7.32L88 7H78l-.384.32-.267-.32H77v-.419L72.616 1.32l.768-.64L77.817 6H88v.219L92.616.68l.768.64-5 6zM64 0h9v1h-9V0zm-4.616 7.32L59 7H49l-.384.32-.267-.32H48v-.419L43.616 1.32l.768-.64L48.817 6H59v.219L63.616.68l.768.64-5 6zM35 0h9v1h-9V0zm-4.616 7.32L30 7H20l-.384.32-.267-.32H19v-.419L14.616 1.32l.768-.64L19.817 6H30v.219L34.616.68l.768.64-5 6zM6 0h9v1H6V0zM1.384 7.32l-.768-.64 5-6 .768.64-5 6z"/></svg>