<svg xmlns="http://www.w3.org/2000/svg" width="14" height="14"><path fill-rule="evenodd" d="M13.684 11.078L11.523 8.91c-.431-.43-1.144-.417-1.589.03l-1.089 1.092-.215-.12c-.688-.382-1.629-.905-2.619-1.9-.994-.995-1.516-1.941-1.899-2.631l-.117-.21.731-.732.359-.361c.447-.447.459-1.162.029-1.593L2.953.317c-.43-.431-1.143-.418-1.589.03L.755.961l.017.017a3.478 3.478 0 00-.502.888 3.67 3.67 0 00-.224.9c-.285 2.373.796 4.541 3.73 7.484 4.056 4.067 7.325 3.76 7.466 3.745.307-.037.601-.111.901-.227a3.51 3.51 0 00.882-.502l.013.012.617-.606c.446-.447.458-1.162.029-1.594z"/></svg>